<?xml version="1.0" encoding="utf-8"?>
<!-- Generator: Adobe Illustrator 16.0.0, SVG Export Plug-In . SVG Version: 6.00 Build 0)  -->
<!DOCTYPE svg PUBLIC "-//W3C//DTD SVG 1.1//EN" "http://www.w3.org/Graphics/SVG/1.1/DTD/svg11.dtd">
<svg version="1.1" xmlns="http://www.w3.org/2000/svg" xmlns:xlink="http://www.w3.org/1999/xlink" x="0px" y="0px"
	 width="138.111px" height="21.042px" viewBox="0 0 138.111 21.042" enable-background="new 0 0 138.111 21.042"
	 xml:space="preserve">
<g id="Capa_3">
	<g id="bancomer_1_">
		<path fill="#FFFFFF" d="M51.776,16.245V2.499V2.257h4.057c0.691,0,1.346,0.058,1.934,0.222c0.586,0.147,1.112,0.401,1.537,0.768
			c0.29,0.238,0.526,0.54,0.699,0.903c0.233,0.468,0.356,1.044,0.356,1.707c0,0.721-0.159,1.303-0.442,1.771
			c-0.274,0.465-0.683,0.802-1.133,1.056c-0.098,0.059-0.196,0.108-0.299,0.152c0.229,0.072,0.451,0.159,0.667,0.267
			c0.424,0.194,0.805,0.474,1.106,0.829c0.203,0.237,0.371,0.512,0.502,0.842c0.167,0.427,0.258,0.924,0.258,1.519
			c0,0.769-0.162,1.418-0.466,1.97c-0.3,0.54-0.729,0.971-1.274,1.281c-0.354,0.208-0.757,0.366-1.209,0.479
			c-0.579,0.15-1.228,0.223-1.922,0.223H51.776z M56.118,14.901c0.567,0,1.078-0.059,1.528-0.199
			c0.443-0.131,0.821-0.33,1.111-0.603c0.188-0.18,0.347-0.393,0.461-0.641c0.16-0.328,0.248-0.73,0.248-1.208
			c0-0.555-0.108-0.99-0.303-1.343c-0.195-0.353-0.477-0.629-0.86-0.836c-0.249-0.13-0.539-0.246-0.875-0.319
			C56.98,9.641,56.47,9.592,55.89,9.592h-2.608v5.309H56.118z M55.778,8.254c0.499,0,0.952-0.051,1.358-0.156
			c0.412-0.112,0.758-0.287,1.024-0.518c0.174-0.154,0.328-0.334,0.438-0.565c0.147-0.297,0.233-0.659,0.233-1.126
			c0-0.516-0.108-0.915-0.288-1.226c-0.187-0.304-0.444-0.528-0.773-0.695c-0.219-0.121-0.474-0.206-0.75-0.266
			c-0.363-0.073-0.77-0.113-1.206-0.113h-2.532v4.664H55.778z"/>
		<path fill="#FFFFFF" d="M70.27,7.272c-0.13-0.301-0.311-0.561-0.536-0.773c-0.32-0.316-0.739-0.546-1.23-0.685
			c-0.475-0.135-1.018-0.192-1.606-0.192c-2.007,0.011-3.135,0.589-3.864,1.007c0.539,1.146,1.113,0.868,1.854,0.547
			c0.571-0.244,1.223-0.346,1.916-0.346c0.318,0,0.667,0.074,1.006,0.143c0.2,0.054,0.379,0.13,0.529,0.215
			c0.243,0.152,0.416,0.339,0.545,0.581c0.127,0.246,0.198,0.567,0.198,0.98v1.493c-0.759-0.167-1.52-0.243-2.392-0.243
			c-0.608,0-1.166,0.059-1.683,0.181c-0.381,0.094-0.725,0.222-1.052,0.389c-0.468,0.258-0.852,0.605-1.125,1.041
			c-0.267,0.449-0.407,0.97-0.407,1.581c0,0.496,0.089,0.961,0.253,1.352c0.26,0.587,0.704,1.05,1.258,1.349
			c0.565,0.304,1.223,0.456,1.967,0.456h0.001c0.856,0,1.534-0.16,2.117-0.434c0.396-0.192,0.742-0.43,1.061-0.709
			c0.004,0.137,0.017,0.25,0.033,0.352c0.016,0.115,0.045,0.217,0.096,0.312c0.034,0.069,0.079,0.136,0.142,0.189
			c0.091,0.073,0.195,0.127,0.305,0.151c0.107,0.029,0.234,0.038,0.364,0.038h0.507V8.686C70.529,8.141,70.44,7.676,70.27,7.272
			 M69.083,13.63c-0.37,0.424-0.759,0.791-1.214,1.038c-0.481,0.268-1.06,0.426-1.833,0.426c-0.315,0-0.608-0.036-0.878-0.111
			c-0.193-0.053-0.366-0.137-0.523-0.236c-0.225-0.145-0.405-0.347-0.537-0.612c-0.135-0.269-0.211-0.604-0.211-1.023
			c0-0.356,0.073-0.638,0.211-0.871c0.103-0.178,0.231-0.329,0.396-0.472c0.243-0.199,0.563-0.338,0.953-0.442
			c0.377-0.1,0.814-0.147,1.302-0.147c0.864,0,1.626,0.113,2.334,0.268V13.63z"/>
		<path fill="#FFFFFF" d="M79.926,16.245V8.648c0-0.429-0.06-0.744-0.169-0.978c-0.108-0.234-0.25-0.391-0.43-0.513
			c-0.12-0.072-0.266-0.132-0.419-0.175c-0.222-0.049-0.469-0.07-0.738-0.07c-0.697,0-1.384,0.191-2.045,0.5
			c-0.617,0.287-1.212,0.669-1.745,1.076v7.758h-1.452V5.73h0.689c0.075,0.007,0.141,0.007,0.211,0.016
			c0.07,0.007,0.143,0.03,0.215,0.074c0.047,0.026,0.088,0.059,0.125,0.097c0.05,0.057,0.09,0.124,0.115,0.19
			c0.032,0.098,0.06,0.199,0.073,0.308c0.017,0.154,0.022,0.33,0.022,0.558v0.112c0.481-0.354,1.017-0.674,1.623-0.935
			c0.762-0.325,1.61-0.528,2.545-0.528c0.415,0,0.814,0.042,1.186,0.161c0.371,0.121,0.712,0.317,0.984,0.629
			c0.182,0.201,0.325,0.447,0.442,0.726c0.148,0.394,0.228,0.854,0.228,1.405v7.702H79.926z"/>
		<path fill="#FFFFFF" d="M94.511,15.508c-0.78-0.54-1.372-1.331-1.713-2.315c-0.233-0.664-0.354-1.398-0.354-2.216
			c0-1.212,0.272-2.272,0.774-3.13c0.504-0.854,1.238-1.49,2.135-1.869c0.605-0.236,1.267-0.355,1.997-0.355
			c1.093-0.005,2.063,0.277,2.841,0.828c0.784,0.537,1.374,1.327,1.723,2.316c0.225,0.652,0.342,1.399,0.342,2.21
			c0,1.218-0.264,2.285-0.776,3.133c-0.495,0.849-1.229,1.481-2.127,1.846c-0.608,0.242-1.278,0.372-2.002,0.372
			C96.267,16.328,95.299,16.037,94.511,15.508 M95.322,7.473c-0.532,0.398-0.934,0.98-1.176,1.738
			c-0.162,0.514-0.243,1.101-0.243,1.766c0,1.009,0.192,1.829,0.532,2.473c0.352,0.639,0.841,1.094,1.467,1.358
			c0.418,0.178,0.9,0.271,1.449,0.271c0.811,0,1.487-0.208,2.023-0.601c0.531-0.391,0.934-0.963,1.178-1.73
			c0.153-0.507,0.238-1.101,0.238-1.771c0-0.991-0.188-1.819-0.539-2.456c-0.342-0.649-0.832-1.11-1.463-1.389
			c-0.413-0.179-0.898-0.272-1.437-0.272C96.533,6.859,95.855,7.069,95.322,7.473"/>
		<path fill="#FFFFFF" d="M116.896,16.245V8.582c0-0.403-0.054-0.7-0.14-0.929c-0.095-0.226-0.216-0.375-0.377-0.494
			c-0.111-0.069-0.241-0.132-0.393-0.172c-0.2-0.051-0.441-0.076-0.717-0.076c-0.659,0-1.268,0.183-1.841,0.469
			c-0.536,0.273-1.046,0.629-1.528,1.015v7.85h-1.453V8.582c0-0.401-0.056-0.698-0.154-0.929c-0.094-0.222-0.218-0.374-0.383-0.494
			c-0.108-0.069-0.234-0.132-0.384-0.172c-0.2-0.051-0.428-0.076-0.68-0.076c-0.693,0-1.301,0.181-1.877,0.466
			c-0.542,0.273-1.05,0.632-1.54,1.029v7.838h-1.445V5.73h0.685c0.073,0.007,0.141,0.007,0.217,0.016
			c0.076,0.007,0.143,0.03,0.221,0.074c0.047,0.02,0.089,0.059,0.122,0.097c0.059,0.057,0.096,0.124,0.121,0.19
			c0.028,0.098,0.05,0.199,0.057,0.312c0.022,0.15,0.023,0.329,0.023,0.554v0.02c0.408-0.292,0.875-0.583,1.393-0.828
			c0.693-0.326,1.493-0.542,2.368-0.542c0.434,0,0.859,0.06,1.241,0.217c0.397,0.158,0.744,0.422,1.002,0.768
			c0.105,0.146,0.194,0.313,0.266,0.494c0.463-0.364,0.989-0.694,1.576-0.965c0.704-0.313,1.496-0.513,2.342-0.513
			c0.409,0,0.802,0.051,1.163,0.172c0.349,0.125,0.674,0.332,0.932,0.621c0.174,0.187,0.314,0.415,0.422,0.677
			c0.13,0.353,0.203,0.751,0.203,1.219v7.934H116.896z"/>
		<path fill="#FFFFFF" d="M37.928,11.174l1.913-6.38l1.937,6.38H37.928z M42.871,3.68c-0.39-1.147-0.606-1.417-1.702-1.417h-2.672
			l-4.278,13.981h2.18l0.919-3.012h5.081l0.926,3.012h3.79L42.871,3.68z"/>
		<path fill="#FFFFFF" d="M17.155,14.38V4.079h1.797c0.865,0,1.613,0.718,1.613,1.579c0,0.304-0.057,0.585-0.352,1.012l-1.167,1.749
			c1.219,0.292,2.033,1.22,2.033,2.954c0,2.108-1.263,3.008-2.932,3.008H17.155z M21.678,7.741l0.688-1.011
			c1.442-2.144,0.45-4.468-2.405-4.468h-6.097V16.25h5.878C24.91,16.25,26.46,10.227,21.678,7.741"/>
		<path fill="#FFFFFF" d="M6.313,14.38H5.327V4.079h1.788c0.865,0,1.616,0.718,1.616,1.579c0,0.304-0.054,0.585-0.355,1.012
			L7.207,8.418c1.22,0.292,2.035,1.22,2.035,2.954C9.241,13.48,7.98,14.38,6.313,14.38 M9.84,7.741l0.681-1.011
			c1.449-2.144,0.458-4.468-2.405-4.468H2.028V16.25h5.881C13.073,16.25,14.635,10.227,9.84,7.741"/>
		<path fill="#FFFFFF" d="M27.829,4.079c-0.498-1.573-0.748-1.817-1.705-1.817h-2.469l4.577,13.983h3.359l4.262-13.983h-2.211
			l-3.157,10.62L27.829,4.079z"/>
		<line fill="#FFFFFF" x1="2.028" y1="2.262" x2="7.909" y2="2.262"/>
		<path fill="#FFFFFF" d="M91.386,6.708c-0.542,1.145-1.062,0.769-1.804,0.449c-0.393-0.167-0.909-0.28-1.589-0.28
			c-0.801,0-1.482,0.208-2.03,0.606c-0.548,0.389-0.966,0.968-1.217,1.722c-0.171,0.506-0.263,1.088-0.263,1.751
			c0,0.752,0.111,1.41,0.308,1.959c0.206,0.556,0.494,0.995,0.862,1.335c0.253,0.228,0.531,0.406,0.85,0.54
			c0.434,0.177,0.92,0.271,1.491,0.271c0.743,0,1.313-0.165,1.741-0.377c0.72-0.37,1.208-0.794,1.832,0.312
			c-0.265,0.25-0.707,0.588-1.179,0.814c-0.069,0.033-0.142,0.065-0.22,0.096c-0.585,0.243-1.326,0.422-2.224,0.422h-0.003
			c-1.145,0-2.12-0.293-2.909-0.835c-0.783-0.549-1.358-1.337-1.692-2.332c-0.217-0.658-0.327-1.402-0.327-2.204
			C83.01,9.73,83.292,8.666,83.812,7.82c0.519-0.847,1.272-1.474,2.184-1.845c0.605-0.233,1.287-0.353,2.013-0.353
			C88.423,5.642,89.906,5.508,91.386,6.708"/>
		<path fill="#FFFFFF" d="M128.714,8.362c-0.152-0.464-0.361-0.871-0.62-1.227c-0.387-0.513-0.882-0.897-1.465-1.161
			c-0.583-0.238-1.249-0.353-1.958-0.353c-0.675,0-1.306,0.124-1.883,0.373c-0.846,0.379-1.559,1.023-2.054,1.886
			c-0.485,0.856-0.754,1.918-0.754,3.135c0,0.791,0.105,1.526,0.317,2.178c0.32,0.978,0.884,1.764,1.667,2.305
			c0.776,0.537,1.782,0.828,2.951,0.828h0.003c0.938,0,1.699-0.152,2.32-0.372c0.992-0.376,1.502-0.832,1.75-1.1
			c-0.681-0.984-1.065-0.591-1.848-0.227c-0.459,0.225-1.337,0.419-2.13,0.419c-0.605,0-1.128-0.089-1.563-0.257
			c-0.333-0.124-0.622-0.296-0.868-0.515c-0.365-0.326-0.657-0.748-0.843-1.294c-0.174-0.482-0.27-1.054-0.289-1.721h7.565v-0.239
			v-0.063c0-0.09,0.012-0.254,0.012-0.413C129.025,9.711,128.923,8.99,128.714,8.362 M121.488,10.037
			c0.067-0.481,0.175-0.901,0.33-1.277c0.272-0.65,0.663-1.127,1.138-1.442c0.485-0.325,1.052-0.481,1.715-0.481
			c0.437,0,0.839,0.061,1.185,0.182c0.254,0.096,0.489,0.225,0.691,0.399c0.307,0.259,0.548,0.603,0.729,1.082
			c0.149,0.413,0.257,0.915,0.295,1.538H121.488z"/>
		<path fill="#FFFFFF" d="M135.211,5.662c-0.766-0.003-1.445,0.235-2.025,0.594c-0.377,0.235-0.719,0.516-1.023,0.817
			c0-0.251-0.006-0.447-0.028-0.607c-0.01-0.126-0.029-0.229-0.063-0.331c-0.026-0.066-0.057-0.136-0.108-0.2
			c-0.038-0.038-0.083-0.079-0.13-0.105c-0.066-0.047-0.143-0.074-0.222-0.08c-0.066-0.008-0.136-0.011-0.206-0.016h-0.693v10.513
			h1.451V8.704c0.51-0.604,0.979-0.976,1.306-1.179c0.01-0.007,0.019-0.012,0.028-0.018c0.586-0.373,1.059-0.476,1.433-0.512
			c0.671-0.064,1.125-0.154,1.191-1.2C135.852,5.716,135.538,5.665,135.211,5.662"/>
	</g>
</g>
<g id="guias">
</g>
</svg>
