<?xml version="1.0" encoding="utf-8"?>
<!-- Generator: Adobe Illustrator 16.0.0, SVG Export Plug-In . SVG Version: 6.00 Build 0)  -->
<!DOCTYPE svg PUBLIC "-//W3C//DTD SVG 1.1//EN" "http://www.w3.org/Graphics/SVG/1.1/DTD/svg11.dtd">
<svg version="1.1" xmlns="http://www.w3.org/2000/svg" xmlns:xlink="http://www.w3.org/1999/xlink" x="0px" y="0px"
	 width="151.778px" height="21.042px" viewBox="0 0 151.778 21.042" enable-background="new 0 0 151.778 21.042"
	 xml:space="preserve">
<g id="Capa_3">
	<g id="continental_1_">
		<path fill="#FFFFFF" d="M67.993,5.506c-2.977,0-4.902,2.107-4.902,5.366c0,3.247,1.925,5.345,4.902,5.345
			c2.99,0,4.925-2.098,4.925-5.345C72.918,7.613,70.983,5.506,67.993,5.506 M67.993,14.979c-2.147,0-3.432-1.535-3.432-4.107
			c0-2.584,1.284-4.125,3.432-4.125c2.163,0,3.453,1.542,3.453,4.125C71.446,13.444,70.156,14.979,67.993,14.979"/>
		<path fill="#FFFFFF" d="M80.402,5.583c-1.416,0-2.814,0.495-4.165,1.469V6.946c0-0.779-0.051-1.247-0.764-1.247h-0.688v10.519
			h1.452V8.454c1.41-1.06,2.654-1.571,3.798-1.571c1.248,0,1.758,0.501,1.758,1.737v7.597h1.451V8.505
			C83.244,6.594,82.26,5.583,80.402,5.583"/>
		<path fill="#FFFFFF" d="M87.521,13.604V6.843h2.674V5.621h-2.674V2.833H86.07v2.788h-1.331v1.222h1.331v6.878
			c0,1.655,0.875,2.496,2.612,2.496c0.614,0,1.21-0.062,1.527-0.121l0.199-0.037v-1.118H89.01
			C87.88,14.941,87.521,14.616,87.521,13.604"/>
		<path fill="#FFFFFF" d="M93.337,2.849c-0.485,0-0.897,0.413-0.897,0.9c0,0.504,0.395,0.9,0.897,0.9c0.506,0,0.901-0.396,0.901-0.9
			C94.238,3.262,93.826,2.849,93.337,2.849"/>
		<path fill="#FFFFFF" d="M93.146,5.699h-0.552v10.519h1.45V6.983C94.044,6.072,93.964,5.699,93.146,5.699"/>
		<path fill="#FFFFFF" d="M102.118,5.583c-1.416,0-2.817,0.495-4.167,1.469V6.946c0-0.779-0.05-1.247-0.764-1.247h-0.684v10.519
			h1.448V8.454c1.413-1.06,2.657-1.571,3.8-1.571c1.25,0,1.759,0.501,1.759,1.737v7.597h1.45V8.505
			C104.96,6.594,103.976,5.583,102.118,5.583"/>
		<path fill="#FFFFFF" d="M123.061,5.583c-1.416,0-2.816,0.495-4.166,1.469V6.946c0-0.779-0.054-1.247-0.763-1.247h-0.688v10.519
			h1.451V8.454c1.41-1.06,2.654-1.571,3.796-1.571c1.254,0,1.761,0.501,1.761,1.737v7.597h1.451V8.505
			C125.902,6.594,124.919,5.583,123.061,5.583"/>
		<path fill="#FFFFFF" d="M130.106,13.604V6.843h2.676V5.621h-2.676V2.833h-1.455v2.788h-1.323v1.222h1.323v6.878
			c0,1.655,0.882,2.496,2.613,2.496c0.616,0,1.211-0.062,1.526-0.121l0.201-0.037v-1.118h-1.4
			C130.465,14.941,130.106,14.616,130.106,13.604"/>
		<path fill="#FFFFFF" d="M145.093,2.255h-0.591v13.962h1.451V3.423C145.953,2.591,145.873,2.255,145.093,2.255"/>
		<path fill="#FFFFFF" d="M141.323,6.367c-0.321-0.318-0.742-0.546-1.232-0.685c-0.474-0.136-1.021-0.196-1.607-0.196
			c-2.008,0.012-3.137,0.592-3.869,1.009c0.544,1.147,1.117,0.867,1.858,0.55c0.57-0.245,1.229-0.348,1.916-0.348
			c0.319,0,0.669,0.074,1.009,0.144c0.201,0.055,0.379,0.13,0.528,0.214c0.242,0.153,0.414,0.339,0.545,0.582
			c0.13,0.245,0.199,0.566,0.199,0.98v1.497c-0.757-0.17-1.523-0.244-2.392-0.244c-0.611,0-1.168,0.055-1.684,0.181
			c-0.382,0.092-0.722,0.22-1.054,0.388c-0.468,0.258-0.849,0.605-1.123,1.04c-0.271,0.449-0.408,0.972-0.408,1.582
			c0,0.496,0.086,0.96,0.252,1.354c0.261,0.587,0.706,1.052,1.259,1.347c0.564,0.306,1.223,0.456,1.967,0.456h0.003
			c0.856,0,1.534-0.161,2.116-0.431c0.401-0.196,0.745-0.43,1.063-0.711c0.006,0.137,0.017,0.249,0.035,0.352
			c0.016,0.115,0.042,0.214,0.092,0.309c0.038,0.069,0.08,0.139,0.143,0.191c0.09,0.074,0.198,0.125,0.304,0.15
			c0.106,0.029,0.235,0.041,0.366,0.041h0.509V8.555c0-0.548-0.089-1.013-0.261-1.417C141.727,6.838,141.549,6.58,141.323,6.367
			 M140.67,13.501c-0.369,0.426-0.757,0.789-1.215,1.038c-0.48,0.267-1.06,0.426-1.836,0.426c-0.314,0-0.608-0.035-0.875-0.111
			c-0.198-0.055-0.369-0.136-0.522-0.239c-0.226-0.146-0.407-0.343-0.54-0.609c-0.135-0.27-0.211-0.603-0.211-1.022
			c0-0.358,0.077-0.639,0.211-0.873c0.104-0.177,0.231-0.328,0.394-0.472c0.245-0.199,0.563-0.339,0.954-0.443
			c0.379-0.1,0.815-0.148,1.305-0.148c0.863,0,1.629,0.114,2.335,0.269V13.501z"/>
		<path fill="#FFFFFF" d="M57.278,3.415c0.324,0,0.615,0.02,0.884,0.053c0.581,0.074,1.041,0.225,1.421,0.414
			c0.014,0.007,0.027,0.014,0.04,0.021c0.048,0.023,0.096,0.049,0.142,0.075C59.833,4.019,59.9,4.058,59.96,4.1
			c0.007,0.003,0.008,0.004,0.013,0.01c0.035,0.024,0.07,0.048,0.105,0.075c0.043,0.03,0.08,0.062,0.12,0.088
			c0.106,0.089,0.208,0.18,0.305,0.261c0.105,0.089,0.208,0.166,0.311,0.229c0.373,0.227,0.745,0.227,1.315-0.418
			c-0.178-0.261-0.371-0.486-0.561-0.679c-0.952-0.969-1.996-1.243-2.417-1.369c-0.005,0-0.008-0.001-0.009-0.001l0,0
			c-0.297-0.07-0.622-0.122-0.979-0.155c-0.29-0.025-0.601-0.041-0.942-0.041c-3.074,0-6.173,2.169-6.173,7.019
			c0,0.012,0,0.027,0,0.04c0,0.011,0,0.024,0,0.038c0,4.849,3.1,7.02,6.173,7.02c0.341,0,0.652-0.014,0.942-0.041
			c0.356-0.033,0.681-0.083,0.979-0.154l0,0c0.001,0,0.004,0,0.009-0.003c0.422-0.128,1.465-0.399,2.417-1.365
			c0.19-0.195,0.383-0.419,0.561-0.683c-0.571-0.645-0.943-0.645-1.315-0.417c-0.102,0.06-0.206,0.139-0.311,0.229
			c-0.097,0.081-0.199,0.168-0.305,0.259c-0.04,0.03-0.077,0.063-0.12,0.092c-0.035,0.024-0.07,0.048-0.105,0.074
			c-0.004,0.001-0.006,0.008-0.013,0.008c-0.061,0.044-0.127,0.082-0.196,0.122c-0.046,0.026-0.094,0.051-0.142,0.076
			c-0.013,0.011-0.025,0.015-0.04,0.022c-0.38,0.188-0.84,0.339-1.421,0.413c-0.269,0.035-0.56,0.053-0.884,0.053
			c-2.89,0-4.684-2.174-4.684-5.667c0-0.026,0.003-0.052,0.003-0.076c0-0.029-0.003-0.051-0.003-0.08
			C52.594,5.586,54.389,3.415,57.278,3.415"/>
		<path fill="#FFFFFF" d="M114.699,7.019c-0.385-0.513-0.882-0.896-1.464-1.161c-0.579-0.237-1.248-0.352-1.955-0.352
			c-0.673,0-1.304,0.125-1.879,0.374c-0.844,0.379-1.556,1.021-2.046,1.884c-0.487,0.856-0.756,1.914-0.756,3.13
			c0,0.79,0.104,1.52,0.319,2.174c0.318,0.974,0.879,1.76,1.665,2.3c0.774,0.537,1.776,0.828,2.943,0.828h0.003
			c0.933,0,1.693-0.152,2.314-0.372c0.993-0.373,1.499-0.831,1.743-1.099c-0.675-0.984-1.06-0.59-1.842-0.229
			c-0.458,0.227-1.336,0.419-2.123,0.419c-0.605,0-1.129-0.088-1.563-0.258c-0.332-0.122-0.619-0.294-0.866-0.511
			c-0.363-0.326-0.652-0.75-0.839-1.292c-0.171-0.48-0.271-1.053-0.288-1.72h7.549v-0.236v-0.065
			c0.003-0.086,0.013-0.251,0.013-0.407c0-0.833-0.102-1.556-0.309-2.18C115.166,7.782,114.959,7.373,114.699,7.019 M108.106,9.913
			c0.065-0.482,0.177-0.9,0.328-1.275c0.271-0.646,0.659-1.121,1.134-1.439c0.483-0.321,1.053-0.479,1.711-0.479
			c0.439,0,0.841,0.062,1.182,0.18c0.257,0.096,0.49,0.226,0.693,0.402c0.305,0.258,0.547,0.598,0.729,1.076
			c0.149,0.413,0.254,0.915,0.289,1.534H108.106z"/>
		<path fill="#FFFFFF" d="M41.113,2.251h-2.669l-4.271,13.96h2.177l0.917-3.006h5.076l0.922,3.006h3.784L42.81,3.668
			C42.424,2.52,42.208,2.251,41.113,2.251 M37.877,11.154l1.909-6.375l1.933,6.375H37.877z"/>
		<path fill="#FFFFFF" d="M21.648,7.723l0.688-1.01c1.441-2.141,0.449-4.462-2.403-4.462h-6.086v13.966h5.87
			C24.878,16.217,26.425,10.206,21.648,7.723 M18.126,14.353h-0.993V4.069h1.794c0.866,0,1.61,0.712,1.61,1.573
			c0,0.301-0.058,0.587-0.354,1.012l-1.163,1.744c1.217,0.292,2.032,1.217,2.032,2.951C21.054,13.456,19.793,14.353,18.126,14.353"
			/>
		<path fill="#FFFFFF" d="M9.83,7.723l0.681-1.01c1.445-2.141,0.456-4.462-2.402-4.462h-0.21H2.028v13.966h5.871
			C13.056,16.217,14.618,10.206,9.83,7.723 M6.307,14.353H5.321V4.069H7.11c0.864,0,1.615,0.712,1.615,1.573
			c0,0.301-0.056,0.587-0.355,1.012L7.199,8.398C8.419,8.69,9.23,9.615,9.23,11.349C9.23,13.456,7.974,14.353,6.307,14.353"/>
		<path fill="#FFFFFF" d="M33.597,2.251l-3.153,10.604l-2.651-8.788c-0.497-1.573-0.749-1.815-1.703-1.815h-2.466l4.569,13.96h3.354
			l4.257-13.96H33.597z"/>
	</g>
</g>
<g id="guias">
</g>
</svg>
