<?xml version="1.0" encoding="utf-8"?>
<!-- Generator: Adobe Illustrator 16.0.0, SVG Export Plug-In . SVG Version: 6.00 Build 0)  -->
<!DOCTYPE svg PUBLIC "-//W3C//DTD SVG 1.1//EN" "http://www.w3.org/Graphics/SVG/1.1/DTD/svg11.dtd">
<svg version="1.1" xmlns="http://www.w3.org/2000/svg" xmlns:xlink="http://www.w3.org/1999/xlink" x="0px" y="0px"
	 width="336.778px" height="45.214px" viewBox="0 0 336.778 45.214" enable-background="new 0 0 336.778 45.214"
	 xml:space="preserve">
<g id="Capa_1">
	<g id="continental_4_">
		<path fill="#26488D" d="M153.167,12.103c-6.82,0-11.231,4.828-11.231,12.293c0,7.441,4.411,12.248,11.231,12.248
			c6.85,0,11.284-4.807,11.284-12.248C164.452,16.931,160.017,12.103,153.167,12.103 M153.167,33.807
			c-4.921,0-7.862-3.516-7.862-9.41c0-5.919,2.941-9.452,7.862-9.452c4.954,0,7.91,3.533,7.91,9.452
			C161.078,30.291,158.122,33.807,153.167,33.807"/>
		<path fill="#26488D" d="M181.598,12.28c-3.244,0-6.449,1.134-9.543,3.365v-0.243c0-1.785-0.117-2.857-1.75-2.857h-1.576v24.1
			h3.326V18.858c3.229-2.43,6.08-3.6,8.701-3.6c2.859,0,4.027,1.148,4.027,3.979v17.407h3.324V18.975
			C188.108,14.597,185.856,12.28,181.598,12.28"/>
		<path fill="#26488D" d="M197.909,30.658V15.166h6.127v-2.8h-6.127V5.977h-3.324v6.389h-3.051v2.8h3.051v15.76
			c0,3.791,2.004,5.719,5.984,5.719c1.406,0,2.773-0.141,3.5-0.277l0.455-0.084v-2.561h-3.203
			C198.731,33.723,197.909,32.975,197.909,30.658"/>
		<path fill="#26488D" d="M211.235,6.015c-1.111,0-2.055,0.946-2.055,2.062c0,1.156,0.904,2.063,2.055,2.063
			c1.16,0,2.064-0.907,2.064-2.063C213.299,6.961,212.354,6.015,211.235,6.015"/>
		<path fill="#26488D" d="M210.797,12.544h-1.264v24.1h3.32V15.488C212.854,13.399,212.67,12.544,210.797,12.544"/>
		<path fill="#26488D" d="M231.354,12.28c-3.244,0-6.453,1.134-9.547,3.365v-0.243c0-1.785-0.115-2.857-1.752-2.857h-1.566v24.1
			h3.318V18.858c3.236-2.43,6.088-3.6,8.707-3.6c2.863,0,4.029,1.148,4.029,3.979v17.407h3.324V18.975
			C237.868,14.597,235.612,12.28,231.354,12.28"/>
		<path fill="#26488D" d="M279.337,12.28c-3.244,0-6.453,1.134-9.543,3.365v-0.243c0-1.785-0.125-2.857-1.75-2.857h-1.576v24.1
			h3.326V18.858c3.229-2.43,6.08-3.6,8.695-3.6c2.875,0,4.035,1.148,4.035,3.979v17.407h3.324V18.975
			C285.849,14.597,283.595,12.28,279.337,12.28"/>
		<path fill="#26488D" d="M295.48,30.658V15.166h6.131v-2.8h-6.131V5.977h-3.332v6.389h-3.033v2.8h3.033v15.76
			c0,3.791,2.02,5.719,5.986,5.719c1.412,0,2.775-0.141,3.498-0.277l0.459-0.084v-2.561h-3.207
			C296.302,33.723,295.48,32.975,295.48,30.658"/>
		<path fill="#26488D" d="M329.818,4.653h-1.355v31.991h3.324V7.332C331.787,5.423,331.605,4.653,329.818,4.653"/>
		<path fill="#26488D" d="M321.179,14.075c-0.736-0.729-1.699-1.252-2.822-1.57c-1.084-0.311-2.34-0.448-3.682-0.448
			c-4.6,0.028-7.188,1.357-8.865,2.312c1.248,2.628,2.559,1.988,4.258,1.26c1.305-0.56,2.814-0.797,4.389-0.797
			c0.73,0,1.531,0.169,2.311,0.33c0.459,0.125,0.869,0.297,1.211,0.49c0.555,0.35,0.947,0.776,1.248,1.331
			c0.299,0.561,0.457,1.299,0.457,2.245v3.43c-1.734-0.389-3.49-0.558-5.48-0.558c-1.4,0-2.676,0.125-3.857,0.415
			c-0.875,0.21-1.654,0.504-2.414,0.889c-1.072,0.59-1.945,1.387-2.572,2.383c-0.619,1.029-0.936,2.227-0.936,3.623
			c0,1.135,0.197,2.199,0.578,3.104c0.598,1.346,1.617,2.41,2.885,3.086c1.293,0.701,2.801,1.045,4.508,1.045h0.006
			c1.961,0,3.516-0.369,4.85-0.986c0.92-0.449,1.705-0.984,2.434-1.629c0.016,0.313,0.039,0.57,0.082,0.807
			c0.035,0.262,0.094,0.492,0.211,0.707c0.088,0.158,0.182,0.318,0.328,0.438c0.205,0.17,0.451,0.285,0.693,0.344
			c0.246,0.066,0.539,0.094,0.838,0.094h1.166V19.09c0-1.256-0.205-2.322-0.598-3.249C322.105,15.154,321.697,14.563,321.179,14.075
			 M319.683,30.422c-0.844,0.977-1.734,1.807-2.785,2.379c-1.1,0.609-2.428,0.975-4.205,0.975c-0.721,0-1.393-0.078-2.006-0.254
			c-0.453-0.125-0.846-0.313-1.195-0.547c-0.518-0.334-0.934-0.787-1.238-1.396c-0.307-0.617-0.482-1.379-0.482-2.342
			c0-0.822,0.176-1.463,0.482-2c0.24-0.406,0.531-0.75,0.902-1.08c0.563-0.455,1.291-0.777,2.188-1.016
			c0.869-0.227,1.867-0.338,2.988-0.338c1.977,0,3.734,0.262,5.352,0.615V30.422z"/>
		<path fill="#26488D" d="M128.617,7.312c0.743,0,1.411,0.045,2.027,0.121c1.33,0.17,2.383,0.515,3.255,0.949
			c0.033,0.017,0.062,0.033,0.091,0.049c0.109,0.055,0.218,0.111,0.323,0.171c0.158,0.093,0.311,0.183,0.449,0.279
			c0.015,0.007,0.019,0.008,0.029,0.022c0.08,0.055,0.161,0.111,0.241,0.172c0.098,0.067,0.182,0.14,0.273,0.202
			c0.245,0.205,0.478,0.412,0.7,0.598c0.24,0.204,0.478,0.378,0.711,0.525c0.853,0.52,1.706,0.52,3.014-0.958
			c-0.408-0.597-0.849-1.114-1.286-1.556c-2.18-2.219-4.572-2.847-5.538-3.137c-0.011,0-0.018-0.003-0.021-0.003l0,0
			c-0.682-0.161-1.426-0.279-2.242-0.354c-0.664-0.059-1.378-0.093-2.158-0.093c-7.043,0-14.145,4.971-14.145,16.08
			c0,0.029,0,0.062,0,0.093c0,0.025,0,0.055,0,0.087c0,11.11,7.101,16.084,14.145,16.084c0.78,0,1.494-0.031,2.158-0.094
			c0.816-0.072,1.56-0.189,2.242-0.354l0,0c0.003,0,0.01,0,0.021-0.006c0.966-0.295,3.357-0.914,5.538-3.127
			c0.437-0.449,0.878-0.963,1.286-1.564c-1.308-1.479-2.161-1.479-3.014-0.955c-0.233,0.137-0.471,0.318-0.711,0.523
			c-0.222,0.186-0.456,0.387-0.7,0.592c-0.091,0.07-0.175,0.145-0.273,0.213c-0.081,0.055-0.161,0.109-0.241,0.168
			c-0.01,0.004-0.014,0.02-0.029,0.02c-0.139,0.1-0.292,0.186-0.449,0.279c-0.105,0.059-0.214,0.115-0.323,0.174
			c-0.029,0.025-0.059,0.035-0.091,0.051c-0.872,0.432-1.925,0.777-3.255,0.947c-0.616,0.08-1.284,0.121-2.027,0.121
			c-6.62,0-10.732-4.982-10.732-12.986c0-0.061,0.007-0.119,0.007-0.173c0-0.068-0.007-0.117-0.007-0.183
			C117.884,12.286,121.997,7.312,128.617,7.312"/>
		<path fill="#26488D" d="M260.179,15.569c-0.883-1.175-2.021-2.053-3.355-2.66c-1.326-0.543-2.858-0.806-4.478-0.806
			c-1.545,0-2.988,0.288-4.307,0.857c-1.934,0.869-3.566,2.338-4.689,4.316c-1.115,1.961-1.73,4.385-1.73,7.171
			c0,1.811,0.236,3.482,0.73,4.982c0.727,2.23,2.014,4.033,3.814,5.27c1.773,1.23,4.068,1.896,6.742,1.896h0.008
			c2.139,0,3.88-0.348,5.302-0.852c2.275-0.855,3.434-1.904,3.994-2.518c-1.545-2.256-2.428-1.352-4.221-0.523
			c-1.049,0.52-3.062,0.961-4.862,0.961c-1.387,0-2.588-0.203-3.58-0.592c-0.762-0.279-1.42-0.674-1.986-1.17
			c-0.832-0.748-1.494-1.719-1.922-2.963c-0.393-1.1-0.619-2.414-0.658-3.941h17.296v-0.541v-0.148
			c0.008-0.197,0.029-0.576,0.029-0.934c0-1.911-0.232-3.565-0.707-4.994C261.25,17.318,260.775,16.38,260.179,15.569
			 M245.075,22.201c0.148-1.104,0.404-2.063,0.752-2.922c0.621-1.48,1.51-2.568,2.598-3.297c1.107-0.735,2.41-1.096,3.922-1.096
			c1.006,0,1.926,0.141,2.707,0.412c0.589,0.221,1.122,0.517,1.587,0.921c0.701,0.592,1.256,1.369,1.672,2.465
			c0.342,0.948,0.582,2.096,0.662,3.516H245.075z"/>
		<path fill="#26488D" d="M91.58,4.645h-6.117l-9.785,31.986h4.987l2.1-6.887h11.629l2.114,6.887h8.669l-9.71-28.739
			C94.583,5.26,94.088,4.645,91.58,4.645 M84.165,25.043l4.375-14.605l4.429,14.605H84.165z"/>
		<path fill="#26488D" d="M46.982,17.183l1.575-2.314c3.303-4.906,1.028-10.224-5.504-10.224H29.109v32h13.448
			C54.383,36.645,57.926,22.871,46.982,17.183 M38.911,32.373h-2.274V8.81h4.112c1.982,0,3.689,1.633,3.689,3.605
			c0,0.689-0.131,1.345-0.81,2.317l-2.664,3.996c2.789,0.669,4.656,2.789,4.656,6.76C45.62,30.316,42.731,32.373,38.911,32.373"/>
		<path fill="#26488D" d="M19.904,17.183l1.561-2.314c3.31-4.906,1.043-10.224-5.504-10.224h-0.481H2.028v32h13.452
			C27.294,36.645,30.874,22.871,19.904,17.183 M11.833,32.373h-2.26V8.81h4.097c1.98,0,3.701,1.633,3.701,3.605
			c0,0.689-0.128,1.345-0.813,2.317l-2.682,3.996c2.795,0.669,4.654,2.789,4.654,6.76C18.53,30.316,15.651,32.373,11.833,32.373"/>
		<path fill="#26488D" d="M74.359,4.645l-7.225,24.295L61.061,8.804c-1.137-3.604-1.716-4.16-3.901-4.16h-5.65l10.47,31.986h7.685
			l9.754-31.986H74.359z"/>
	</g>
</g>
<g id="guias">
</g>
</svg>
