<?xml version="1.0" encoding="utf-8"?>
<!-- Generator: Adobe Illustrator 16.0.0, SVG Export Plug-In . SVG Version: 6.00 Build 0)  -->
<!DOCTYPE svg PUBLIC "-//W3C//DTD SVG 1.1//EN" "http://www.w3.org/Graphics/SVG/1.1/DTD/svg11.dtd">
<svg version="1.1" xmlns="http://www.w3.org/2000/svg" xmlns:xlink="http://www.w3.org/1999/xlink" x="0px" y="0px"
	 width="297.992px" height="45.214px" viewBox="0 0 297.992 45.214" enable-background="new 0 0 297.992 45.214"
	 xml:space="preserve">
<g id="Capa_1">
	<g id="provincial_4_">
		<path fill="#26488D" d="M198.364,12.556c-0.234-0.044-0.457-0.07-0.652-0.093c-0.387-0.033-0.713-0.033-0.996,0
			c-1.057,0.132-1.531,0.767-1.941,1.708c-0.021,0.051-6.629,16.781-6.914,17.482l0,0l0,0c-0.281-0.701-6.885-17.431-6.91-17.482
			c-0.408-0.941-0.881-1.576-1.941-1.708c-0.281-0.033-0.607-0.033-0.984,0c-0.207,0.023-0.418,0.049-0.65,0.093
			c-0.154,0.023-0.299,0.067-0.459,0.1l1.813,4.613l7.666,19.383h1.467l0,0l0,0l0,0h1.477l7.66-19.383l1.818-4.613
			C198.657,12.624,198.502,12.579,198.364,12.556"/>
		<path fill="#26488D" d="M124.378,4.647h-8.586v32.006h3.458V23.731h5.086c7.767,0,11.539-3.175,11.539-9.689
			C135.875,7.815,132.01,4.647,124.378,4.647 M124.336,20.717h-5.086V7.712h5.086c5.636,0,8.043,1.922,8.043,6.415
			C132.38,18.74,129.973,20.717,124.336,20.717"/>
		<path fill="#26488D" d="M164.401,12.292c-6.83,0-11.234,4.821-11.234,12.296c0,7.426,4.404,12.24,11.234,12.24
			c6.842,0,11.268-4.814,11.268-12.24C175.668,17.113,171.243,12.292,164.401,12.292 M164.401,33.993
			c-4.928,0-7.867-3.514-7.867-9.404c0-5.923,2.939-9.458,7.867-9.458c4.951,0,7.904,3.535,7.904,9.458
			C172.305,30.479,169.352,33.993,164.401,33.993"/>
		<path fill="#26488D" d="M260.049,12.556h-1.262v24.097h3.316V15.504C262.104,13.408,261.92,12.556,260.049,12.556"/>
		<path fill="#26488D" d="M260.487,10.15c1.152,0,2.063-0.897,2.063-2.056c0-1.116-0.945-2.066-2.063-2.066
			c-1.111,0-2.059,0.95-2.059,2.066C258.428,9.253,259.338,10.15,260.487,10.15"/>
		<path fill="#26488D" d="M291.549,4.666h-1.355v31.987h3.322V7.343C293.516,5.439,293.334,4.666,291.549,4.666"/>
		<path fill="#26488D" d="M284.497,16.081c-0.299-0.683-0.709-1.278-1.23-1.763c-0.734-0.734-1.689-1.257-2.82-1.578
			c-1.078-0.309-2.332-0.447-3.682-0.447c-4.598,0.031-7.182,1.356-8.861,2.322c1.242,2.615,2.557,1.973,4.258,1.253
			c1.307-0.563,2.803-0.795,4.389-0.795c0.732,0,1.531,0.17,2.311,0.326c0.457,0.127,0.865,0.302,1.211,0.5
			c0.555,0.351,0.945,0.758,1.25,1.317c0.299,0.562,0.449,1.297,0.449,2.246v3.439c-1.734-0.395-3.484-0.568-5.479-0.568
			c-1.393,0-2.672,0.144-3.863,0.42c-0.865,0.207-1.648,0.497-2.4,0.89c-1.076,0.588-1.957,1.38-2.576,2.386
			c-0.621,1.021-0.93,2.223-0.93,3.619c0,1.143,0.195,2.193,0.574,3.094c0.596,1.348,1.613,2.404,2.885,3.088
			c1.291,0.697,2.801,1.051,4.504,1.051h0.006c1.963,0,3.516-0.369,4.854-0.988c0.908-0.451,1.703-0.99,2.426-1.637
			c0.018,0.314,0.045,0.568,0.082,0.811c0.033,0.26,0.104,0.494,0.221,0.713c0.076,0.152,0.186,0.311,0.32,0.438
			c0.207,0.176,0.453,0.289,0.697,0.336c0.25,0.078,0.535,0.096,0.838,0.096h1.162v-17.32
			C285.09,18.073,284.887,17.003,284.497,16.081 M281.77,30.653c-0.84,0.973-1.734,1.807-2.783,2.373
			c-1.098,0.621-2.43,0.98-4.207,0.98c-0.717,0-1.389-0.084-2.004-0.264c-0.447-0.121-0.832-0.309-1.193-0.543
			c-0.516-0.326-0.932-0.791-1.24-1.393c-0.301-0.623-0.475-1.375-0.475-2.342c0-0.818,0.164-1.465,0.475-1.992
			c0.24-0.412,0.537-0.746,0.91-1.086c0.555-0.449,1.291-0.771,2.188-1.02c0.863-0.225,1.861-0.334,2.986-0.334
			c1.982,0,3.723,0.264,5.344,0.619V30.653z"/>
		<path fill="#26488D" d="M254.022,14.784c-1.24,2.618-2.424,1.769-4.125,1.037c-0.904-0.39-2.088-0.644-3.646-0.644
			c-1.826,0.008-3.396,0.483-4.646,1.38c-1.26,0.897-2.219,2.224-2.789,3.948c-0.395,1.169-0.607,2.499-0.607,4.018
			c0,1.724,0.252,3.228,0.709,4.497c0.469,1.266,1.131,2.273,1.977,3.051c0.58,0.523,1.219,0.926,1.947,1.227
			c1,0.412,2.105,0.625,3.41,0.625c1.705,0,3.016-0.387,3.998-0.861c1.643-0.854,2.766-1.82,4.186,0.709
			c-0.598,0.574-1.609,1.359-2.689,1.871c-0.166,0.076-0.328,0.152-0.504,0.225c-1.344,0.561-3.045,0.963-5.102,0.963h-0.008
			c-2.615,0-4.852-0.674-6.664-1.91c-1.795-1.268-3.109-3.08-3.873-5.338c-0.506-1.506-0.752-3.217-0.752-5.058
			c-0.004-2.816,0.645-5.252,1.832-7.197c1.18-1.928,2.91-3.355,5.004-4.226c1.389-0.53,2.949-0.808,4.607-0.808
			C247.241,12.344,250.641,12.03,254.022,14.784"/>
		<path fill="#26488D" d="M204.471,10.15c1.15,0,2.059-0.897,2.059-2.056c0-1.116-0.945-2.066-2.059-2.066
			c-1.115,0-2.061,0.95-2.061,2.066C202.411,9.253,203.315,10.15,204.471,10.15"/>
		<path fill="#26488D" d="M204.028,12.556h-1.262v24.097h3.32V15.504C206.086,13.408,205.905,12.556,204.028,12.556"/>
		<path fill="#26488D" d="M224.413,12.292c-3.244,0-6.451,1.13-9.537,3.368v-0.25c0-1.931-0.174-2.854-1.752-2.854h-1.58v24.097
			h3.332V18.868c3.225-2.422,6.082-3.595,8.697-3.595c2.861,0,4.031,1.155,4.031,3.969v17.412h3.316V18.977
			C230.92,14.614,228.674,12.292,224.413,12.292"/>
		<path fill="#26488D" d="M150.1,12.384c-1.753-0.014-3.31,0.546-4.637,1.373c-0.871,0.535-1.655,1.174-2.354,1.859
			c0-0.569-0.009-1.024-0.061-1.382c-0.026-0.302-0.068-0.521-0.144-0.764c-0.061-0.149-0.128-0.312-0.249-0.456
			c-0.088-0.084-0.186-0.179-0.292-0.242c-0.156-0.1-0.329-0.162-0.512-0.192c-0.148-0.014-0.307-0.017-0.474-0.023h-1.592v24.097
			h3.324V19.355c1.168-1.385,2.252-2.235,2.995-2.703c0.023-0.012,0.047-0.033,0.07-0.049c1.35-0.841,2.428-1.079,3.279-1.164
			c1.547-0.146,2.584-0.347,2.729-2.751C151.567,12.505,150.854,12.391,150.1,12.384"/>
		<path fill="#26488D" d="M84.145,25.048l4.378-14.596l4.427,14.596H84.145z M95.451,7.898c-0.889-2.63-1.383-3.244-3.885-3.244
			h-6.117l-9.788,31.991h4.987l2.103-6.881h11.629l2.11,6.881h8.668L95.451,7.898z"/>
		<path fill="#26488D" d="M36.631,32.382V8.816h4.109c1.981,0,3.689,1.643,3.689,3.614c0,0.695-0.129,1.341-0.804,2.315l-2.67,3.985
			c2.793,0.679,4.649,2.8,4.649,6.776c0,4.83-2.884,6.875-6.699,6.875H36.631z M46.977,17.189l1.57-2.303
			C51.85,9.976,49.58,4.647,43.049,4.647H29.106v32.004h13.441C54.371,36.651,57.918,22.88,46.977,17.189"/>
		<path fill="#26488D" d="M11.83,32.382H9.572V8.816h4.094c1.982,0,3.698,1.643,3.698,3.614c0,0.695-0.125,1.341-0.811,2.315
			l-2.678,3.985c2.796,0.679,4.655,2.8,4.655,6.776C18.53,30.337,15.648,32.382,11.83,32.382 M19.901,17.189l1.557-2.303
			c3.313-4.911,1.048-10.239-5.502-10.239H2.028v32.004h13.454C27.291,36.651,30.865,22.88,19.901,17.189"/>
		<path fill="#26488D" d="M61.052,8.816c-1.138-3.609-1.721-4.169-3.906-4.169h-5.647l10.472,31.998h7.685l9.749-31.998h-5.062
			L67.125,28.95L61.052,8.816z"/>
		<line fill="#26488D" x1="2.028" y1="4.647" x2="15.481" y2="4.647"/>
	</g>
</g>
<g id="guias">
</g>
</svg>
