<?xml version="1.0" encoding="utf-8"?>
<!-- Generator: Adobe Illustrator 16.0.0, SVG Export Plug-In . SVG Version: 6.00 Build 0)  -->
<!DOCTYPE svg PUBLIC "-//W3C//DTD SVG 1.1//EN" "http://www.w3.org/Graphics/SVG/1.1/DTD/svg11.dtd">
<svg version="1.1" xmlns="http://www.w3.org/2000/svg" xmlns:xlink="http://www.w3.org/1999/xlink" x="0px" y="0px"
	 width="310.864px" height="45.214px" viewBox="0 0 310.864 45.214" enable-background="new 0 0 310.864 45.214"
	 xml:space="preserve">
<g id="Capa_1">
	<g id="bancomer_4_">
		<path fill="#26488D" d="M115.839,36.643V5.194V4.642h9.28c1.581,0,3.078,0.132,4.423,0.507c1.341,0.335,2.545,0.917,3.517,1.757
			c0.664,0.545,1.204,1.234,1.599,2.066c0.533,1.07,0.815,2.388,0.815,3.904c0,1.65-0.363,2.981-1.011,4.052
			c-0.628,1.063-1.563,1.835-2.592,2.416c-0.225,0.134-0.449,0.247-0.685,0.349c0.526,0.165,1.033,0.364,1.526,0.609
			c0.972,0.444,1.842,1.084,2.531,1.897c0.464,0.542,0.848,1.17,1.149,1.926c0.38,0.979,0.591,2.115,0.591,3.477
			c0,1.758-0.371,3.244-1.065,4.506c-0.686,1.234-1.667,2.221-2.915,2.932c-0.809,0.475-1.732,0.838-2.767,1.094
			c-1.323,0.344-2.809,0.51-4.397,0.51H115.839z M125.772,33.568c1.297,0,2.465-0.135,3.495-0.455
			c1.015-0.301,1.878-0.754,2.541-1.381c0.431-0.412,0.794-0.898,1.055-1.465c0.366-0.752,0.565-1.672,0.565-2.762
			c0-1.27-0.247-2.266-0.693-3.074c-0.446-0.807-1.091-1.439-1.968-1.914c-0.569-0.297-1.232-0.562-2.001-0.731
			c-1.023-0.253-2.19-0.364-3.517-0.364h-5.967v12.145H125.772z M124.993,18.363c1.142,0,2.178-0.118,3.107-0.356
			c0.942-0.256,1.733-0.657,2.341-1.186c0.399-0.352,0.751-0.765,1.004-1.293c0.337-0.679,0.533-1.506,0.533-2.576
			c0-1.18-0.247-2.093-0.66-2.804c-0.428-0.694-1.016-1.207-1.769-1.589c-0.5-0.277-1.084-0.47-1.715-0.607
			c-0.83-0.167-1.762-0.259-2.759-0.259h-5.793v10.67H124.993z"/>
		<path fill="#26488D" d="M158.145,16.116c-0.297-0.689-0.709-1.282-1.225-1.769c-0.732-0.723-1.69-1.249-2.813-1.566
			c-1.087-0.31-2.331-0.44-3.676-0.44c-4.59,0.025-7.171,1.349-8.839,2.304c1.232,2.622,2.545,1.985,4.242,1.252
			c1.305-0.558,2.799-0.792,4.383-0.792c0.729,0,1.526,0.169,2.302,0.327c0.457,0.123,0.867,0.297,1.211,0.491
			c0.555,0.348,0.95,0.776,1.247,1.329c0.291,0.562,0.453,1.298,0.453,2.243v3.416c-1.736-0.381-3.476-0.556-5.47-0.556
			c-1.392,0-2.667,0.135-3.85,0.414c-0.87,0.217-1.657,0.508-2.407,0.891c-1.07,0.592-1.947,1.385-2.571,2.381
			c-0.612,1.027-0.932,2.219-0.932,3.615c0,1.135,0.204,2.199,0.58,3.094c0.595,1.342,1.61,2.4,2.879,3.084
			c1.291,0.695,2.795,1.043,4.499,1.043h0.003c1.958,0,3.51-0.367,4.844-0.992c0.906-0.439,1.697-0.984,2.425-1.621
			c0.012,0.313,0.039,0.57,0.076,0.803c0.037,0.264,0.102,0.498,0.219,0.713c0.079,0.158,0.18,0.311,0.325,0.434
			c0.207,0.166,0.447,0.291,0.697,0.346c0.246,0.068,0.537,0.088,0.834,0.088h1.16V19.349
			C158.741,18.103,158.538,17.04,158.145,16.116 M155.43,30.662c-0.844,0.971-1.736,1.809-2.777,2.375
			c-1.102,0.613-2.425,0.975-4.194,0.975c-0.722,0-1.392-0.082-2.008-0.256c-0.443-0.121-0.837-0.311-1.196-0.539
			c-0.515-0.332-0.926-0.795-1.229-1.4c-0.309-0.613-0.482-1.381-0.482-2.342c0-0.814,0.167-1.459,0.482-1.99
			c0.235-0.408,0.529-0.752,0.906-1.08c0.555-0.455,1.287-0.771,2.179-1.012c0.862-0.229,1.863-0.338,2.98-0.338
			c1.976,0,3.719,0.26,5.339,0.615V30.662z"/>
		<path fill="#26488D" d="M180.237,36.643v-17.38c0-0.981-0.137-1.703-0.387-2.237c-0.246-0.537-0.572-0.896-0.982-1.174
			c-0.275-0.166-0.609-0.303-0.959-0.4c-0.506-0.113-1.072-0.162-1.688-0.162c-1.596,0-3.168,0.438-4.68,1.144
			c-1.412,0.657-2.773,1.531-3.992,2.461v17.749h-3.32V12.588h1.576c0.172,0.015,0.322,0.015,0.482,0.035
			c0.16,0.017,0.328,0.068,0.492,0.169c0.109,0.059,0.203,0.135,0.287,0.223c0.117,0.13,0.207,0.283,0.266,0.435
			c0.072,0.225,0.137,0.455,0.166,0.705c0.041,0.352,0.051,0.753,0.051,1.276v0.255c1.102-0.81,2.328-1.542,3.711-2.138
			c1.744-0.744,3.686-1.208,5.822-1.208c0.949,0,1.863,0.098,2.713,0.369c0.848,0.276,1.629,0.726,2.252,1.439
			c0.416,0.461,0.742,1.023,1.012,1.661c0.338,0.899,0.521,1.953,0.521,3.214v17.62H180.237z"/>
		<path fill="#26488D" d="M213.604,34.957c-1.783-1.234-3.139-3.043-3.918-5.297c-0.533-1.52-0.809-3.197-0.809-5.07
			c0-2.772,0.623-5.199,1.771-7.16c1.154-1.954,2.832-3.408,4.885-4.276c1.385-0.54,2.898-0.814,4.566-0.814
			c2.502-0.011,4.721,0.634,6.5,1.896c1.795,1.227,3.145,3.035,3.943,5.298c0.512,1.492,0.781,3.202,0.781,5.056
			c0,2.787-0.604,5.229-1.775,7.17c-1.133,1.941-2.814,3.387-4.867,4.221c-1.391,0.555-2.924,0.852-4.582,0.852
			C217.622,36.832,215.407,36.166,213.604,34.957 M215.461,16.575c-1.219,0.911-2.139,2.243-2.693,3.976
			c-0.369,1.175-0.555,2.518-0.555,4.039c0,2.309,0.439,4.186,1.217,5.658c0.807,1.461,1.926,2.502,3.357,3.107
			c0.957,0.406,2.059,0.621,3.313,0.621c1.857,0,3.404-0.477,4.629-1.375c1.215-0.893,2.137-2.201,2.695-3.957
			c0.35-1.16,0.543-2.521,0.543-4.055c0-2.267-0.43-4.162-1.232-5.618c-0.783-1.485-1.902-2.539-3.348-3.177
			c-0.945-0.409-2.055-0.623-3.287-0.623C218.231,15.171,216.678,15.651,215.461,16.575"/>
		<path fill="#26488D" d="M264.817,36.643V19.11c0-0.921-0.125-1.601-0.32-2.125c-0.217-0.517-0.494-0.858-0.863-1.129
			c-0.254-0.158-0.551-0.303-0.898-0.394c-0.457-0.117-1.008-0.173-1.639-0.173c-1.508,0-2.9,0.418-4.213,1.073
			c-1.225,0.624-2.393,1.439-3.496,2.322v17.958h-3.322V19.11c0-0.916-0.127-1.595-0.352-2.125c-0.217-0.506-0.5-0.856-0.877-1.129
			c-0.248-0.158-0.537-0.303-0.879-0.394c-0.455-0.117-0.979-0.173-1.555-0.173c-1.584,0-2.977,0.413-4.295,1.067
			c-1.24,0.624-2.4,1.445-3.521,2.355v17.931h-3.307V12.588h1.566c0.166,0.015,0.322,0.015,0.496,0.035
			c0.174,0.017,0.326,0.068,0.504,0.169c0.109,0.044,0.203,0.135,0.279,0.223c0.135,0.13,0.219,0.283,0.277,0.435
			c0.064,0.225,0.113,0.455,0.131,0.713c0.049,0.344,0.053,0.751,0.053,1.269v0.045c0.934-0.667,2.002-1.332,3.188-1.894
			c1.586-0.746,3.414-1.242,5.416-1.242c0.994,0,1.965,0.138,2.84,0.496c0.91,0.363,1.701,0.965,2.293,1.757
			c0.24,0.333,0.443,0.716,0.609,1.129c1.059-0.833,2.262-1.588,3.604-2.208c1.609-0.715,3.422-1.175,5.357-1.175
			c0.936,0,1.836,0.118,2.66,0.395c0.801,0.285,1.545,0.759,2.133,1.419c0.398,0.428,0.719,0.95,0.965,1.548
			c0.297,0.808,0.463,1.72,0.463,2.79v18.15H264.817z"/>
		<path fill="#26488D" d="M84.158,25.041l4.375-14.595l4.431,14.595H84.158z M95.466,7.897c-0.893-2.625-1.386-3.241-3.895-3.241
			H85.46l-9.789,31.986h4.988l2.102-6.891h11.623l2.118,6.891h8.671L95.466,7.897z"/>
		<path fill="#26488D" d="M36.635,32.377V8.81h4.111c1.979,0,3.69,1.643,3.69,3.611c0,0.696-0.13,1.339-0.805,2.315l-2.668,4
			c2.788,0.669,4.651,2.792,4.651,6.758c0,4.824-2.889,6.883-6.707,6.883H36.635z M46.981,17.188l1.573-2.313
			c3.299-4.905,1.029-10.223-5.502-10.223H29.104v32h13.447C54.377,36.652,57.922,22.875,46.981,17.188"/>
		<path fill="#26488D" d="M11.831,32.377H9.576V8.81h4.089c1.979,0,3.698,1.643,3.698,3.611c0,0.696-0.123,1.339-0.812,2.315
			l-2.675,4c2.792,0.669,4.654,2.792,4.654,6.758C18.53,30.318,15.644,32.377,11.831,32.377 M19.9,17.188l1.559-2.313
			c3.314-4.905,1.048-10.223-5.502-10.223H2.028v32h13.454C27.296,36.652,30.87,22.875,19.9,17.188"/>
		<path fill="#26488D" d="M61.054,8.81c-1.138-3.599-1.711-4.158-3.9-4.158h-5.648l10.47,31.99h7.685l9.751-31.99h-5.059
			L67.13,28.949L61.054,8.81z"/>
		<line fill="#26488D" x1="2.028" y1="4.652" x2="15.482" y2="4.652"/>
		<path fill="#26488D" d="M206.456,14.823c-1.24,2.619-2.43,1.758-4.127,1.028c-0.898-0.383-2.08-0.64-3.635-0.64
			c-1.832,0-3.389,0.474-4.645,1.386c-1.254,0.889-2.211,2.214-2.783,3.939c-0.393,1.158-0.604,2.491-0.604,4.008
			c0,1.721,0.256,3.227,0.705,4.482c0.471,1.271,1.131,2.277,1.971,3.055c0.58,0.52,1.215,0.93,1.945,1.234
			c0.992,0.406,2.105,0.617,3.41,0.617c1.699,0,3.006-0.377,3.984-0.861c1.646-0.848,2.764-1.816,4.189,0.711
			c-0.604,0.572-1.615,1.348-2.695,1.863c-0.16,0.076-0.326,0.15-0.504,0.221c-1.34,0.557-3.033,0.965-5.086,0.965h-0.008
			c-2.619,0-4.852-0.67-6.656-1.91c-1.791-1.256-3.105-3.059-3.871-5.334c-0.496-1.506-0.748-3.209-0.748-5.043
			c-0.008-2.807,0.639-5.241,1.826-7.177c1.188-1.937,2.912-3.371,4.998-4.22c1.385-0.534,2.943-0.808,4.604-0.808
			C199.676,12.385,203.069,12.081,206.456,14.823"/>
		<path fill="#26488D" d="M291.852,18.61c-0.348-1.062-0.826-1.994-1.42-2.806c-0.885-1.174-2.018-2.054-3.35-2.656
			c-1.336-0.545-2.857-0.808-4.48-0.808c-1.547,0-2.988,0.283-4.309,0.854c-1.934,0.868-3.566,2.34-4.697,4.315
			c-1.109,1.958-1.727,4.389-1.727,7.172c0,1.811,0.24,3.492,0.727,4.984c0.73,2.236,2.021,4.035,3.813,5.271
			c1.775,1.229,4.076,1.895,6.752,1.895h0.006c2.146,0,3.887-0.348,5.307-0.852c2.271-0.859,3.438-1.9,4.004-2.516
			c-1.559-2.252-2.438-1.354-4.229-0.52c-1.049,0.514-3.059,0.959-4.873,0.959c-1.383,0-2.578-0.203-3.572-0.588
			c-0.762-0.285-1.422-0.678-1.988-1.178c-0.834-0.746-1.5-1.713-1.928-2.961c-0.398-1.102-0.617-2.41-0.66-3.938h17.309v-0.547
			v-0.145c0-0.205,0.027-0.582,0.027-0.943C292.563,21.694,292.331,20.045,291.852,18.61 M275.321,22.44
			c0.152-1.102,0.398-2.063,0.756-2.922c0.621-1.488,1.516-2.579,2.602-3.299c1.111-0.743,2.406-1.101,3.924-1.101
			c1,0,1.92,0.14,2.711,0.416c0.58,0.219,1.117,0.515,1.58,0.914c0.703,0.593,1.254,1.378,1.668,2.474
			c0.34,0.944,0.588,2.093,0.674,3.519H275.321z"/>
		<path fill="#26488D" d="M306.715,12.432c-1.752-0.007-3.307,0.537-4.633,1.36c-0.863,0.537-1.645,1.18-2.34,1.869
			c0-0.575-0.016-1.024-0.066-1.389c-0.021-0.29-0.064-0.525-0.145-0.757c-0.059-0.152-0.131-0.31-0.248-0.458
			c-0.086-0.087-0.188-0.181-0.297-0.24c-0.152-0.107-0.324-0.169-0.508-0.183c-0.152-0.02-0.311-0.025-0.471-0.037h-1.586v24.052
			h3.32V19.391c1.166-1.381,2.24-2.232,2.986-2.697c0.021-0.017,0.043-0.027,0.064-0.042c1.342-0.852,2.422-1.087,3.279-1.171
			c1.535-0.146,2.572-0.352,2.725-2.746C308.182,12.556,307.463,12.438,306.715,12.432"/>
	</g>
</g>
<g id="guias">
</g>
</svg>
