<?xml version="1.0" encoding="utf-8"?>
<!-- Generator: Adobe Illustrator 16.0.0, SVG Export Plug-In . SVG Version: 6.00 Build 0)  -->
<!DOCTYPE svg PUBLIC "-//W3C//DTD SVG 1.1//EN" "http://www.w3.org/Graphics/SVG/1.1/DTD/svg11.dtd">
<svg version="1.1" xmlns="http://www.w3.org/2000/svg" xmlns:xlink="http://www.w3.org/1999/xlink" x="0px" y="0px"
	 width="117.028px" height="24.25px" viewBox="0 0 117.028 24.25" enable-background="new 0 0 117.028 24.25" xml:space="preserve">
<g id="Capa_3">
	<g id="frances_2_">
		<path fill="#FFFFFF" d="M41.212,2.298h-2.676l-4.284,13.995h2.181l0.924-3.009h5.083l0.928,3.009h3.793L42.914,3.715
			C42.527,2.569,42.31,2.298,41.212,2.298 M37.963,11.22l1.917-6.389l1.939,6.389H37.963z"/>
		<path fill="#FFFFFF" d="M21.699,7.783l0.687-1.013c1.444-2.147,0.451-4.474-2.409-4.474h-6.101v14.003h5.885
			C24.936,16.299,26.485,10.272,21.699,7.783 M18.168,14.433h-0.997V4.119h1.799c0.865,0,1.614,0.715,1.614,1.579
			c0,0.303-0.054,0.588-0.354,1.011L19.064,8.46c1.221,0.293,2.037,1.224,2.037,2.956C21.102,13.529,19.835,14.433,18.168,14.433"/>
		<path fill="#FFFFFF" d="M9.848,7.783l0.684-1.013c1.45-2.147,0.456-4.474-2.407-4.474H7.914H2.028v14.003h5.886
			C13.084,16.299,14.648,10.272,9.848,7.783 M6.316,14.433H5.329V4.119h1.789c0.869,0,1.622,0.715,1.622,1.579
			c0,0.303-0.056,0.588-0.356,1.011L7.211,8.46c1.224,0.293,2.038,1.224,2.038,2.956C9.249,13.529,7.987,14.433,6.316,14.433"/>
		<path fill="#FFFFFF" d="M33.675,2.296l-3.16,10.632l-2.659-8.81c-0.495-1.578-0.75-1.823-1.706-1.823h-2.47l4.578,13.997h3.367
			L35.89,2.296H33.675z"/>
		<path fill="#FFFFFF" d="M105.372,7.153c-0.389-0.516-0.885-0.9-1.471-1.163c-0.583-0.242-1.254-0.356-1.962-0.356
			c-0.682,0-1.312,0.122-1.89,0.378C99.201,6.39,98.483,7.038,97.991,7.9c-0.487,0.86-0.76,1.924-0.76,3.146
			c0,0.791,0.105,1.527,0.322,2.188c0.32,0.975,0.882,1.765,1.671,2.304c0.776,0.54,1.786,0.832,2.958,0.832h0.003
			c0.939,0,1.701-0.152,2.325-0.374c1-0.378,1.507-0.832,1.75-1.101c-0.679-0.989-1.062-0.594-1.848-0.23
			c-0.46,0.23-1.344,0.42-2.135,0.42c-0.607,0-1.133-0.092-1.57-0.259c-0.333-0.125-0.623-0.297-0.871-0.511
			c-0.362-0.332-0.657-0.755-0.842-1.303c-0.176-0.482-0.271-1.057-0.292-1.731h7.589v-0.235v-0.065
			c0-0.084,0.011-0.251,0.011-0.411c0-0.835-0.101-1.563-0.309-2.187C105.841,7.919,105.632,7.511,105.372,7.153 M98.748,10.062
			c0.067-0.484,0.177-0.903,0.331-1.281c0.272-0.651,0.66-1.127,1.14-1.446c0.485-0.326,1.057-0.479,1.72-0.479
			c0.438,0,0.842,0.06,1.186,0.182c0.256,0.093,0.49,0.223,0.696,0.4c0.306,0.26,0.549,0.601,0.73,1.082
			c0.15,0.413,0.257,0.917,0.29,1.542H98.748z"/>
		<path fill="#FFFFFF" d="M63.799,6.271c-0.383,0.231-0.724,0.516-1.03,0.815c0-0.252-0.004-0.448-0.029-0.607
			c-0.006-0.129-0.028-0.227-0.06-0.331c-0.028-0.065-0.059-0.135-0.111-0.201c-0.038-0.041-0.081-0.079-0.125-0.108
			c-0.07-0.042-0.145-0.071-0.224-0.082c-0.07-0.006-0.139-0.007-0.212-0.012h-0.691v10.549h1.453v-7.57
			c0.513-0.602,0.984-0.978,1.309-1.183c0.009-0.003,0.02-0.01,0.033-0.019c0.59-0.372,1.062-0.479,1.435-0.512
			c0.676-0.064,1.129-0.153,1.195-1.207c-0.271-0.08-0.581-0.127-0.91-0.133C65.058,5.667,64.379,5.905,63.799,6.271"/>
		<path fill="#FFFFFF" d="M111.891,10.149c-2.071-0.346-2.422-0.8-2.422-1.683c0-1.07,0.738-1.587,2.249-1.591
			c1.246-0.002,1.662,0.332,2.04,0.505c0.38,0.171,0.696,0.211,1.098-0.272c0.052-0.06,0.106-0.133,0.163-0.214
			c-0.044-0.05-0.098-0.105-0.163-0.167c-1.297-1.126-2.594-1.093-3.158-1.093c-2.236,0-3.622,1.114-3.622,2.906
			c0,2.117,1.79,2.675,3.353,2.924c2.122,0.34,2.495,0.836,2.495,1.745c0,1.294-0.816,1.919-2.495,1.919
			c-0.767,0-1.364-0.16-1.822-0.372v0.005c-0.687-0.326-1.078-0.66-1.625-0.067c-0.08,0.084-0.165,0.188-0.25,0.315
			c0.064,0.07,0.146,0.152,0.25,0.243c0.197,0.177,0.476,0.379,0.859,0.581c0.223,0.11,0.476,0.207,0.766,0.293
			c0.499,0.144,1.105,0.24,1.859,0.24c2.51,0,3.893-1.144,3.893-3.232C115.357,10.986,113.693,10.431,111.891,10.149"/>
		<path fill="#FFFFFF" d="M74.75,6.514c-0.323-0.317-0.739-0.547-1.23-0.687c-0.472-0.139-1.019-0.193-1.607-0.193
			c-2.006,0.008-3.134,0.59-3.869,1.008c0.543,1.147,1.118,0.869,1.86,0.547c0.568-0.245,1.224-0.345,1.916-0.345
			c0.32,0,0.669,0.076,1.01,0.145c0.199,0.053,0.378,0.127,0.527,0.216c0.242,0.147,0.414,0.334,0.544,0.578
			c0.128,0.244,0.198,0.567,0.198,0.98v1.498c-0.757-0.171-1.521-0.245-2.39-0.245c-0.61,0-1.169,0.057-1.687,0.179
			c-0.38,0.096-0.72,0.225-1.052,0.394c-0.468,0.254-0.852,0.605-1.122,1.039c-0.271,0.446-0.41,0.971-0.41,1.583
			c0,0.498,0.089,0.96,0.252,1.354c0.261,0.587,0.708,1.046,1.261,1.345c0.563,0.305,1.225,0.457,1.967,0.457h0.003
			c0.858,0,1.538-0.16,2.117-0.43c0.399-0.196,0.745-0.428,1.061-0.71c0.009,0.133,0.017,0.247,0.038,0.351
			c0.012,0.113,0.039,0.215,0.094,0.31c0.036,0.066,0.077,0.137,0.141,0.19c0.091,0.077,0.195,0.125,0.303,0.15
			c0.109,0.031,0.234,0.037,0.368,0.037h0.508V8.7c0-0.543-0.089-1.01-0.262-1.414C75.16,6.982,74.979,6.728,74.75,6.514
			 M74.098,13.651c-0.37,0.422-0.757,0.788-1.211,1.036c-0.483,0.269-1.064,0.428-1.84,0.428c-0.313,0-0.607-0.034-0.876-0.112
			c-0.192-0.056-0.361-0.134-0.521-0.237c-0.227-0.148-0.405-0.346-0.54-0.612c-0.134-0.27-0.208-0.603-0.208-1.022
			c0-0.358,0.07-0.638,0.208-0.872c0.107-0.176,0.232-0.329,0.395-0.474c0.241-0.197,0.563-0.338,0.951-0.442
			c0.379-0.099,0.819-0.149,1.309-0.149c0.865,0,1.626,0.114,2.333,0.27V13.651z"/>
		<path fill="#FFFFFF" d="M85.742,6.425c-0.271-0.309-0.611-0.51-0.982-0.629c-0.375-0.121-0.776-0.162-1.191-0.162
			c-0.933,0-1.779,0.204-2.544,0.531c-0.605,0.258-1.143,0.578-1.623,0.937V6.989c0-0.228-0.006-0.404-0.023-0.559
			c-0.012-0.111-0.04-0.215-0.071-0.312c-0.024-0.064-0.066-0.132-0.117-0.185c-0.036-0.044-0.076-0.074-0.124-0.102
			c-0.077-0.043-0.147-0.065-0.217-0.076c-0.071-0.007-0.138-0.007-0.212-0.012h-0.692v10.519h1.456V8.501
			c0.532-0.403,1.128-0.787,1.746-1.078c0.66-0.307,1.348-0.498,2.048-0.498c0.266,0,0.514,0.019,0.734,0.072
			c0.156,0.04,0.301,0.104,0.422,0.173c0.179,0.122,0.323,0.279,0.432,0.514c0.108,0.234,0.168,0.549,0.168,0.979v7.599h1.46V8.558
			c0-0.551-0.077-1.01-0.227-1.402C86.067,6.874,85.925,6.626,85.742,6.425"/>
		<path fill="#FFFFFF" d="M94.769,14.704c-0.431,0.211-1.002,0.377-1.746,0.377c-0.568,0-1.053-0.091-1.487-0.27
			c-0.319-0.135-0.6-0.313-0.851-0.542c-0.374-0.339-0.662-0.78-0.866-1.335c-0.198-0.548-0.306-1.21-0.306-1.958
			c0-0.667,0.091-1.248,0.262-1.756c0.248-0.753,0.669-1.33,1.22-1.723c0.546-0.395,1.23-0.602,2.027-0.604
			c0.681,0,1.201,0.111,1.594,0.278c0.74,0.32,1.261,0.696,1.802-0.45c-1.478-1.202-2.963-1.068-3.378-1.086
			c-0.726,0-1.409,0.122-2.014,0.356c-0.913,0.369-1.667,0.999-2.185,1.844c-0.521,0.848-0.802,1.912-0.802,3.142
			c0,0.801,0.111,1.546,0.331,2.206c0.333,0.992,0.907,1.785,1.693,2.334c0.789,0.537,1.768,0.833,2.909,0.833h0.003
			c0.9,0,1.64-0.178,2.227-0.427c0.075-0.028,0.148-0.06,0.22-0.094c0.471-0.225,0.915-0.563,1.176-0.813
			C95.979,13.907,95.487,14.333,94.769,14.704"/>
		<path fill="#FFFFFF" d="M101.129,3.99c0.055,0.088,0.113,0.178,0.188,0.263c0.004,0.005,0.008,0.011,0.013,0.019
			c0.077,0.085,0.171,0.178,0.28,0.278l3.19-2.977c-0.758-0.606-1.208-0.608-1.646-0.337c-0.091,0.053-0.182,0.118-0.271,0.193
			c-0.045,0.04-0.1,0.089-0.155,0.148c-0.133,0.134-0.891,0.994-1.286,1.444l-0.137,0.152c-0.003,0.008-0.011,0.015-0.013,0.02
			c-0.043,0.058-0.087,0.107-0.125,0.163c-0.044,0.064-0.077,0.138-0.1,0.229c-0.013,0.056-0.013,0.116-0.007,0.175
			C101.071,3.838,101.095,3.922,101.129,3.99"/>
		<polygon fill="#FFFFFF" points="51.813,16.293 53.327,16.293 53.327,10.097 58.539,10.097 58.539,8.759 53.327,8.759 
			53.327,3.645 60.354,3.645 60.354,2.288 51.813,2.288 		"/>
	</g>
</g>
<g id="guias">
</g>
</svg>
