<?xml version="1.0" encoding="utf-8"?>
<!-- Generator: Adobe Illustrator 16.0.0, SVG Export Plug-In . SVG Version: 6.00 Build 0)  -->
<!DOCTYPE svg PUBLIC "-//W3C//DTD SVG 1.1//EN" "http://www.w3.org/Graphics/SVG/1.1/DTD/svg11.dtd">
<svg version="1.1" xmlns="http://www.w3.org/2000/svg" xmlns:xlink="http://www.w3.org/1999/xlink" x="0px" y="0px"
	 width="264.278px" height="45.214px" viewBox="0 0 264.278 45.214" enable-background="new 0 0 264.278 45.214"
	 xml:space="preserve">
<g id="Capa_1">
	<g id="frances_1_">
		<path fill="#26488D" d="M91.641,4.654h-6.12l-9.796,32.005h4.988l2.112-6.881h11.625l2.122,6.881h8.674L95.532,7.895
			C94.648,5.274,94.151,4.654,91.641,4.654 M84.211,25.058l4.383-14.611l4.436,14.611H84.211z"/>
		<path fill="#26488D" d="M47.015,17.197l1.571-2.314c3.303-4.913,1.03-10.234-5.51-10.234H29.125v32.026h13.458
			C54.418,36.675,57.962,22.891,47.015,17.197 M38.94,32.405H36.66V8.817h4.115c1.979,0,3.69,1.637,3.69,3.61
			c0,0.694-0.124,1.346-0.81,2.313l-2.664,4.007c2.792,0.67,4.658,2.797,4.658,6.76C45.648,30.339,42.754,32.405,38.94,32.405"/>
		<path fill="#26488D" d="M19.914,17.197l1.561-2.314c3.318-4.913,1.044-10.234-5.502-10.234h-0.483H2.028v32.026h13.461
			C27.313,36.675,30.89,22.891,19.914,17.197 M11.835,32.405H9.577V8.817h4.093c1.987,0,3.708,1.637,3.708,3.61
			c0,0.694-0.127,1.346-0.813,2.313l-2.683,4.007c2.8,0.67,4.659,2.797,4.659,6.76C18.541,30.339,15.657,32.405,11.835,32.405"/>
		<path fill="#26488D" d="M74.405,4.648l-7.227,24.317L61.097,8.817c-1.131-3.608-1.717-4.169-3.901-4.169h-5.65l10.469,32.011h7.7
			L79.47,4.648H74.405z"/>
		<path fill="#26488D" d="M238.372,15.757c-0.891-1.179-2.023-2.06-3.363-2.66c-1.334-0.553-2.869-0.813-4.486-0.813
			c-1.561,0-3,0.278-4.322,0.863c-1.938,0.865-3.58,2.346-4.707,4.319c-1.115,1.966-1.738,4.4-1.738,7.195
			c0,1.809,0.24,3.492,0.736,5.002c0.73,2.23,2.018,4.037,3.822,5.271c1.775,1.234,4.084,1.904,6.766,1.904h0.008
			c2.148,0,3.891-0.348,5.316-0.855c2.287-0.863,3.447-1.902,4.004-2.518c-1.553-2.262-2.428-1.359-4.227-0.527
			c-1.053,0.527-3.072,0.963-4.881,0.963c-1.389,0-2.592-0.209-3.59-0.59c-0.764-0.285-1.426-0.682-1.992-1.17
			c-0.828-0.76-1.504-1.727-1.926-2.979c-0.402-1.104-0.619-2.416-0.668-3.961h17.357v-0.535v-0.15c0-0.193,0.023-0.574,0.023-0.941
			c0-1.911-0.23-3.573-0.707-5C239.448,17.508,238.969,16.575,238.372,15.757 M223.223,22.409c0.154-1.109,0.406-2.065,0.758-2.93
			c0.621-1.489,1.51-2.579,2.605-3.307c1.113-0.746,2.416-1.096,3.936-1.096c1,0,1.926,0.136,2.713,0.417
			c0.586,0.212,1.121,0.508,1.59,0.914c0.699,0.595,1.258,1.374,1.672,2.474c0.344,0.945,0.588,2.097,0.662,3.528H223.223z"/>
		<path fill="#26488D" d="M143.297,13.739c-0.875,0.529-1.655,1.179-2.354,1.864c0-0.578-0.01-1.025-0.066-1.39
			c-0.014-0.295-0.064-0.521-0.137-0.758c-0.066-0.148-0.136-0.308-0.256-0.458c-0.084-0.092-0.184-0.179-0.285-0.247
			c-0.162-0.096-0.332-0.162-0.512-0.188c-0.161-0.014-0.318-0.018-0.486-0.027h-1.582v24.125h3.324V19.346
			c1.171-1.375,2.251-2.234,2.994-2.705c0.021-0.008,0.045-0.022,0.074-0.045c1.351-0.849,2.429-1.094,3.282-1.169
			c1.544-0.147,2.583-0.351,2.734-2.76c-0.622-0.182-1.33-0.291-2.083-0.305C146.177,12.357,144.624,12.904,143.297,13.739"/>
		<path fill="#26488D" d="M253.282,22.609c-4.736-0.789-5.539-1.829-5.539-3.849c0-2.447,1.688-3.631,5.143-3.638
			c2.85-0.004,3.801,0.759,4.664,1.155c0.871,0.391,1.592,0.483,2.514-0.623c0.117-0.137,0.242-0.305,0.373-0.489
			c-0.102-0.113-0.227-0.241-0.373-0.383c-2.967-2.573-5.934-2.499-7.225-2.499c-5.113,0-8.283,2.547-8.283,6.646
			c0,4.841,4.092,6.118,7.668,6.688c4.852,0.779,5.705,1.912,5.705,3.99c0,2.961-1.867,4.389-5.705,4.389
			c-1.756,0-3.121-0.363-4.168-0.848v0.012c-1.568-0.746-2.463-1.51-3.717-0.154c-0.182,0.193-0.375,0.432-0.572,0.719
			c0.146,0.162,0.334,0.35,0.572,0.559c0.451,0.402,1.088,0.865,1.967,1.328c0.508,0.252,1.086,0.473,1.75,0.67
			c1.141,0.33,2.529,0.551,4.25,0.551c5.742,0,8.906-2.615,8.906-7.395C261.211,24.524,257.403,23.255,253.282,22.609"/>
		<path fill="#26488D" d="M168.341,14.295c-0.739-0.726-1.692-1.251-2.814-1.571c-1.08-0.315-2.329-0.44-3.676-0.44
			c-4.587,0.018-7.169,1.348-8.85,2.305c1.243,2.623,2.558,1.986,4.253,1.252c1.301-0.561,2.799-0.789,4.385-0.789
			c0.732,0,1.528,0.172,2.31,0.33c0.454,0.121,0.862,0.291,1.205,0.494c0.55,0.337,0.945,0.766,1.243,1.322
			c0.293,0.558,0.453,1.299,0.453,2.242v3.425c-1.731-0.39-3.479-0.56-5.467-0.56c-1.395,0-2.674,0.132-3.858,0.41
			c-0.868,0.219-1.644,0.514-2.404,0.898c-1.071,0.582-1.951,1.385-2.568,2.377c-0.617,1.02-0.937,2.221-0.937,3.619
			c0,1.137,0.206,2.197,0.575,3.094c0.598,1.344,1.622,2.395,2.885,3.076c1.285,0.697,2.799,1.045,4.495,1.045h0.011
			c1.959,0,3.516-0.365,4.842-0.984c0.912-0.447,1.702-0.977,2.426-1.621c0.02,0.303,0.037,0.563,0.086,0.803
			c0.029,0.26,0.09,0.488,0.215,0.707c0.081,0.152,0.177,0.314,0.32,0.436c0.209,0.176,0.447,0.285,0.694,0.342
			c0.251,0.072,0.536,0.086,0.842,0.086h1.159V19.295c0-1.242-0.203-2.309-0.598-3.235
			C169.278,15.367,168.864,14.782,168.341,14.295 M166.85,30.618c-0.848,0.965-1.731,1.801-2.77,2.367
			c-1.104,0.615-2.433,0.979-4.209,0.979c-0.716,0-1.389-0.076-2.004-0.254c-0.438-0.129-0.824-0.307-1.189-0.543
			c-0.519-0.338-0.929-0.789-1.235-1.398c-0.307-0.617-0.476-1.379-0.476-2.338c0-0.82,0.16-1.459,0.476-1.992
			c0.245-0.404,0.532-0.752,0.904-1.086c0.55-0.449,1.287-0.773,2.176-1.012c0.864-0.225,1.871-0.34,2.991-0.34
			c1.979,0,3.721,0.26,5.336,0.617V30.618z"/>
		<path fill="#26488D" d="M193.481,14.094c-0.619-0.709-1.398-1.167-2.246-1.44c-0.855-0.275-1.773-0.37-2.723-0.37
			c-2.135,0-4.072,0.466-5.82,1.212c-1.385,0.593-2.613,1.324-3.711,2.143v-0.258c0-0.521-0.014-0.922-0.055-1.277
			c-0.025-0.253-0.09-0.492-0.162-0.712c-0.055-0.146-0.148-0.303-0.266-0.424c-0.08-0.1-0.174-0.167-0.285-0.234
			c-0.174-0.096-0.336-0.146-0.496-0.172c-0.16-0.018-0.313-0.018-0.482-0.027h-1.582v24.056h3.328V18.84
			c1.217-0.924,2.58-1.8,3.992-2.466c1.51-0.702,3.082-1.136,4.686-1.136c0.607,0,1.174,0.042,1.68,0.164
			c0.357,0.092,0.686,0.238,0.965,0.396c0.408,0.278,0.738,0.638,0.986,1.176c0.248,0.536,0.385,1.255,0.385,2.237v17.38h3.342
			V18.969c0-1.258-0.176-2.31-0.52-3.205C194.225,15.118,193.899,14.553,193.481,14.094"/>
		<path fill="#26488D" d="M214.125,33.026c-0.986,0.482-2.293,0.861-3.994,0.861c-1.299,0-2.408-0.207-3.4-0.615
			c-0.732-0.311-1.373-0.715-1.945-1.242c-0.854-0.777-1.512-1.783-1.979-3.053c-0.453-1.252-0.701-2.766-0.701-4.479
			c0-1.523,0.211-2.855,0.602-4.017c0.566-1.722,1.529-3.042,2.787-3.94c1.25-0.903,2.814-1.377,4.637-1.381
			c1.557,0,2.746,0.256,3.645,0.637c1.693,0.731,2.885,1.591,4.121-1.03c-3.381-2.749-6.775-2.444-7.725-2.484
			c-1.662,0-3.221,0.278-4.605,0.813c-2.088,0.844-3.813,2.285-4.996,4.216c-1.191,1.94-1.834,4.374-1.834,7.186
			c0,1.832,0.254,3.535,0.756,5.043c0.762,2.27,2.074,4.082,3.871,5.34c1.803,1.229,4.043,1.906,6.654,1.906h0.008
			c2.059,0,3.75-0.406,5.092-0.975c0.172-0.066,0.342-0.137,0.504-0.217c1.076-0.512,2.094-1.285,2.691-1.859
			C216.893,31.204,215.766,32.177,214.125,33.026"/>
		<path fill="#26488D" d="M228.67,8.524c0.127,0.201,0.26,0.406,0.428,0.601c0.012,0.011,0.02,0.025,0.031,0.041
			c0.174,0.196,0.391,0.407,0.641,0.639l7.295-6.808c-1.732-1.386-2.76-1.39-3.764-0.772c-0.209,0.123-0.416,0.271-0.621,0.443
			c-0.102,0.092-0.227,0.205-0.352,0.338c-0.305,0.307-2.037,2.276-2.943,3.306l-0.313,0.346c-0.008,0.019-0.023,0.033-0.029,0.044
			c-0.102,0.133-0.201,0.246-0.287,0.373c-0.1,0.146-0.174,0.315-0.227,0.522C228.5,7.726,228.5,7.863,228.516,8
			C228.538,8.177,228.592,8.368,228.67,8.524"/>
		<polygon fill="#26488D" points="115.885,36.659 119.348,36.659 119.348,22.49 131.269,22.49 131.269,19.428 119.348,19.428 
			119.348,7.734 135.418,7.734 135.418,4.632 115.885,4.632 		"/>
	</g>
</g>
<g id="guias">
</g>
</svg>
