<?xml version="1.0" encoding="utf-8"?>
<!-- Generator: Adobe Illustrator 16.0.0, SVG Export Plug-In . SVG Version: 6.00 Build 0)  -->
<!DOCTYPE svg PUBLIC "-//W3C//DTD SVG 1.1//EN" "http://www.w3.org/Graphics/SVG/1.1/DTD/svg11.dtd">
<svg version="1.1" id="Capa_1" xmlns="http://www.w3.org/2000/svg" xmlns:xlink="http://www.w3.org/1999/xlink" x="0px" y="0px"
	 width="48.889px" height="21.042px" viewBox="0 0 48.889 21.042" enable-background="new 0 0 48.889 21.042" xml:space="preserve">
<g id="Capa_3">
	<g>
		<path fill="#FFFFFF" d="M41.205,2.26H38.53l-4.283,13.996h2.182l0.919-3.014h5.087l0.924,3.014h3.792L42.907,3.681
			C42.52,2.531,42.3,2.26,41.205,2.26 M37.959,11.181l1.914-6.387l1.938,6.387H37.959z"/>
		<path fill="#FFFFFF" d="M21.696,7.744l0.688-1.013c1.443-2.145,0.451-4.474-2.408-4.474h-6.103v14.002h5.886
			C24.932,16.259,26.481,10.233,21.696,7.744 M18.165,14.388H17.17V4.081h1.797c0.867,0,1.613,0.714,1.613,1.578
			c0,0.303-0.058,0.587-0.353,1.013l-1.165,1.749c1.22,0.292,2.034,1.222,2.034,2.958C21.097,13.49,19.834,14.388,18.165,14.388"/>
		<path fill="#FFFFFF" d="M9.848,7.744l0.683-1.013c1.45-2.145,0.456-4.474-2.408-4.474h-0.21H2.028v14.002h5.885
			C13.081,16.259,14.645,10.233,9.848,7.744 M6.316,14.388H5.33V4.081h1.789c0.867,0,1.621,0.714,1.621,1.578
			c0,0.303-0.056,0.587-0.358,1.013L7.21,8.421c1.224,0.292,2.039,1.222,2.039,2.958C9.249,13.49,7.986,14.388,6.316,14.388"/>
		<path fill="#FFFFFF" d="M33.67,2.257l-3.159,10.634l-2.659-8.81c-0.497-1.577-0.749-1.824-1.707-1.824h-2.47l4.58,13.999h3.363
			l4.266-13.999H33.67z"/>
	</g>
</g>
<g id="guias">
</g>
</svg>
