<?xml version="1.0" encoding="utf-8"?>
<!-- Generator: Adobe Illustrator 16.0.0, SVG Export Plug-In . SVG Version: 6.00 Build 0)  -->
<!DOCTYPE svg PUBLIC "-//W3C//DTD SVG 1.1//EN" "http://www.w3.org/Graphics/SVG/1.1/DTD/svg11.dtd">
<svg version="1.1" xmlns="http://www.w3.org/2000/svg" xmlns:xlink="http://www.w3.org/1999/xlink" x="0px" y="0px"
	 width="131.278px" height="21.042px" viewBox="0 0 131.278 21.042" enable-background="new 0 0 131.278 21.042"
	 xml:space="preserve">
<g id="Capa_3">
	<g id="provincial_1_">
		<path fill="#FFFFFF" d="M87.848,5.714c-0.102-0.02-0.199-0.031-0.285-0.042c-0.169-0.014-0.311-0.014-0.435,0
			c-0.462,0.059-0.67,0.335-0.848,0.747c-0.01,0.022-2.898,7.334-3.023,7.641l0,0l0,0c-0.123-0.307-3.009-7.619-3.02-7.641
			c-0.178-0.412-0.386-0.688-0.85-0.747c-0.122-0.014-0.265-0.014-0.431,0c-0.089,0.011-0.183,0.021-0.284,0.042
			c-0.067,0.009-0.13,0.029-0.201,0.042l0.793,2.017l3.351,8.473h0.641l0,0l0,0l0,0h0.646l3.349-8.473l0.793-2.017
			C87.977,5.744,87.909,5.724,87.848,5.714"/>
		<path fill="#FFFFFF" d="M55.508,2.257h-3.753v13.991h1.512v-5.649h2.223c3.395,0,5.044-1.388,5.044-4.234
			C60.534,3.642,58.844,2.257,55.508,2.257 M55.49,9.281h-2.223V3.596h2.223c2.464,0,3.516,0.841,3.516,2.804
			C59.006,8.417,57.954,9.281,55.49,9.281"/>
		<path fill="#FFFFFF" d="M73.002,5.599c-2.985,0-4.91,2.107-4.91,5.375c0,3.246,1.925,5.35,4.91,5.35
			c2.991,0,4.925-2.104,4.925-5.35C77.928,7.706,75.994,5.599,73.002,5.599 M73.002,15.084c-2.154,0-3.438-1.537-3.438-4.111
			c0-2.589,1.285-4.134,3.438-4.134c2.164,0,3.456,1.545,3.456,4.134C76.458,13.547,75.167,15.084,73.002,15.084"/>
		<path fill="#FFFFFF" d="M114.812,5.714h-0.552v10.533h1.451V7.002C115.71,6.086,115.629,5.714,114.812,5.714"/>
		<path fill="#FFFFFF" d="M115.002,4.662c0.504,0,0.901-0.392,0.901-0.898c0-0.488-0.413-0.903-0.901-0.903
			c-0.485,0-0.899,0.416-0.899,0.903C114.103,4.27,114.5,4.662,115.002,4.662"/>
		<path fill="#FFFFFF" d="M128.581,2.265h-0.593v13.982h1.452V3.435C129.44,2.603,129.361,2.265,128.581,2.265"/>
		<path fill="#FFFFFF" d="M125.497,7.254c-0.129-0.298-0.309-0.559-0.536-0.771c-0.322-0.32-0.739-0.548-1.233-0.689
			c-0.471-0.135-1.02-0.195-1.609-0.195c-2.01,0.013-3.14,0.593-3.874,1.015c0.542,1.143,1.117,0.862,1.862,0.548
			c0.57-0.246,1.224-0.348,1.917-0.348c0.32,0,0.669,0.075,1.01,0.143c0.2,0.055,0.378,0.131,0.529,0.218
			c0.242,0.152,0.414,0.331,0.547,0.575c0.13,0.246,0.196,0.567,0.196,0.982v1.502c-0.759-0.172-1.523-0.248-2.395-0.248
			c-0.609,0-1.168,0.063-1.689,0.183c-0.377,0.09-0.72,0.217-1.048,0.389c-0.471,0.257-0.855,0.604-1.126,1.043
			c-0.271,0.446-0.406,0.971-0.406,1.582c0,0.5,0.085,0.959,0.251,1.352c0.261,0.589,0.706,1.051,1.261,1.35
			c0.564,0.305,1.224,0.46,1.968,0.46h0.002c0.857,0,1.537-0.161,2.121-0.433c0.397-0.196,0.746-0.433,1.061-0.715
			c0.007,0.137,0.019,0.248,0.035,0.355c0.015,0.111,0.046,0.215,0.098,0.311c0.033,0.066,0.08,0.136,0.139,0.191
			c0.09,0.076,0.197,0.125,0.304,0.146c0.109,0.035,0.235,0.041,0.367,0.041h0.507v-7.57C125.757,8.125,125.669,7.658,125.497,7.254
			 M124.306,13.625c-0.368,0.425-0.759,0.79-1.216,1.038c-0.48,0.271-1.063,0.428-1.839,0.428c-0.313,0-0.607-0.037-0.875-0.116
			c-0.196-0.052-0.365-0.134-0.522-0.236c-0.226-0.143-0.408-0.347-0.542-0.609c-0.132-0.271-0.207-0.601-0.207-1.023
			c0-0.357,0.071-0.641,0.207-0.871c0.104-0.181,0.234-0.326,0.397-0.475c0.242-0.196,0.564-0.337,0.956-0.445
			c0.377-0.098,0.814-0.146,1.305-0.146c0.867,0,1.628,0.116,2.337,0.271V13.625z"/>
		<path fill="#FFFFFF" d="M112.177,6.688c-0.542,1.144-1.061,0.773-1.803,0.453c-0.396-0.171-0.913-0.281-1.595-0.281
			c-0.798,0.003-1.485,0.211-2.031,0.603c-0.551,0.393-0.97,0.973-1.219,1.726c-0.172,0.511-0.265,1.092-0.265,1.757
			c0,0.753,0.11,1.411,0.31,1.965c0.205,0.554,0.494,0.994,0.863,1.333c0.254,0.229,0.534,0.405,0.852,0.537
			c0.438,0.18,0.92,0.272,1.491,0.272c0.745,0,1.318-0.17,1.748-0.376c0.717-0.374,1.208-0.796,1.83,0.31
			c-0.262,0.25-0.704,0.594-1.176,0.818c-0.073,0.033-0.144,0.066-0.22,0.098c-0.587,0.245-1.332,0.421-2.23,0.421h-0.003
			c-1.143,0-2.121-0.294-2.913-0.835c-0.784-0.554-1.36-1.346-1.693-2.333c-0.221-0.658-0.329-1.406-0.329-2.21
			c-0.002-1.232,0.281-2.296,0.801-3.146c0.516-0.842,1.272-1.467,2.187-1.847c0.606-0.232,1.29-0.354,2.014-0.354
			C109.213,5.621,110.7,5.484,112.177,6.688"/>
		<path fill="#FFFFFF" d="M90.518,4.662c0.503,0,0.9-0.392,0.9-0.898c0-0.488-0.413-0.903-0.9-0.903c-0.487,0-0.9,0.416-0.9,0.903
			C89.618,4.27,90.013,4.662,90.518,4.662"/>
		<path fill="#FFFFFF" d="M90.324,5.714h-0.552v10.533h1.452V7.002C91.224,6.086,91.144,5.714,90.324,5.714"/>
		<path fill="#FFFFFF" d="M99.234,5.599c-1.418,0-2.819,0.494-4.168,1.472v-0.11c0-0.844-0.076-1.247-0.766-1.247h-0.69v10.533
			h1.456V8.472c1.409-1.058,2.658-1.571,3.802-1.571c1.25,0,1.761,0.505,1.761,1.735v7.612h1.449V8.521
			C102.078,6.613,101.098,5.599,99.234,5.599"/>
		<path fill="#FFFFFF" d="M66.752,5.639c-0.766-0.006-1.447,0.238-2.027,0.6c-0.381,0.235-0.724,0.513-1.029,0.813
			c0-0.249-0.004-0.448-0.026-0.604c-0.011-0.132-0.03-0.227-0.063-0.334c-0.027-0.065-0.057-0.136-0.109-0.199
			c-0.039-0.037-0.081-0.079-0.127-0.106c-0.068-0.043-0.144-0.07-0.224-0.084c-0.064-0.006-0.134-0.007-0.207-0.009h-0.696v10.533
			h1.453V8.686c0.511-0.605,0.984-0.977,1.309-1.181c0.011-0.005,0.021-0.014,0.031-0.021c0.59-0.368,1.062-0.471,1.433-0.508
			c0.677-0.065,1.13-0.151,1.194-1.203C67.393,5.691,67.081,5.642,66.752,5.639"/>
		<path fill="#FFFFFF" d="M37.922,11.174l1.914-6.38l1.935,6.38H37.922z M42.864,3.678c-0.389-1.149-0.605-1.418-1.698-1.418h-2.674
			l-4.278,13.983h2.18l0.919-3.006h5.083l0.923,3.006h3.788L42.864,3.678z"/>
		<path fill="#FFFFFF" d="M17.153,14.38V4.079h1.796c0.865,0,1.612,0.718,1.612,1.58c0,0.304-0.057,0.586-0.351,1.012l-1.167,1.742
			c1.221,0.297,2.032,1.224,2.032,2.962c0,2.11-1.261,3.006-2.928,3.006H17.153z M21.676,7.739l0.687-1.007
			c1.443-2.146,0.451-4.476-2.403-4.476h-6.095v13.99h5.876C24.907,16.247,26.458,10.227,21.676,7.739"/>
		<path fill="#FFFFFF" d="M6.313,14.38H5.325V4.079h1.79c0.866,0,1.616,0.718,1.616,1.58c0,0.304-0.055,0.586-0.354,1.012
			l-1.17,1.742c1.222,0.297,2.035,1.224,2.035,2.962C9.241,13.485,7.981,14.38,6.313,14.38 M9.841,7.739l0.68-1.007
			c1.449-2.146,0.458-4.476-2.405-4.476H2.028v13.99h5.881C13.07,16.247,14.633,10.227,9.841,7.739"/>
		<path fill="#FFFFFF" d="M27.828,4.079c-0.498-1.578-0.753-1.822-1.708-1.822h-2.469l4.577,13.986h3.359L35.85,2.257h-2.213
			L30.483,12.88L27.828,4.079z"/>
		<line fill="#FFFFFF" x1="2.028" y1="2.257" x2="7.909" y2="2.257"/>
	</g>
</g>
<g id="guias">
</g>
</svg>
