<?xml version="1.0" encoding="utf-8"?>
<!-- Generator: Adobe Illustrator 16.0.0, SVG Export Plug-In . SVG Version: 6.00 Build 0)  -->
<!DOCTYPE svg PUBLIC "-//W3C//DTD SVG 1.1//EN" "http://www.w3.org/Graphics/SVG/1.1/DTD/svg11.dtd">
<svg version="1.1" xmlns="http://www.w3.org/2000/svg" xmlns:xlink="http://www.w3.org/1999/xlink" x="0px" y="0px"
	 width="151.778px" height="21.042px" viewBox="0 0 151.778 21.042" enable-background="new 0 0 151.778 21.042"
	 xml:space="preserve">
<g id="Capa_3">
	<g id="compass_1_">
		<path fill="#FFFFFF" d="M96.289,5.603c-1.312,0-2.537,0.527-3.566,1.531V6.962c0-0.847-0.077-1.245-0.764-1.245h-0.687v13.628
			h1.45v-4.002c0.854,0.623,1.834,0.905,3.102,0.905c1.07,0,4.556-0.395,4.556-5.44C100.38,6.108,97.519,5.603,96.289,5.603
			 M95.654,14.992c-1.268,0-2.15-0.355-2.931-1.182V8.782c1.1-1.298,2.188-1.901,3.412-1.901c1.79,0,2.777,1.426,2.777,4.024
			C98.911,14.282,97.139,14.992,95.654,14.992"/>
		<path fill="#FFFFFF" d="M109.111,6.482c-0.326-0.316-0.739-0.545-1.229-0.687c-0.476-0.134-1.022-0.192-1.608-0.192
			c-2.006,0.01-3.134,0.592-3.867,1.008c0.544,1.146,1.117,0.862,1.859,0.547c0.57-0.245,1.224-0.348,1.915-0.348
			c0.319,0.003,0.667,0.078,1.006,0.145c0.199,0.055,0.382,0.128,0.529,0.215c0.243,0.151,0.416,0.336,0.546,0.577
			c0.127,0.245,0.196,0.57,0.196,0.981v1.496c-0.758-0.167-1.519-0.245-2.391-0.245c-0.608,0-1.166,0.06-1.683,0.182
			c-0.382,0.093-0.725,0.223-1.05,0.389c-0.469,0.255-0.855,0.607-1.125,1.043c-0.269,0.443-0.406,0.966-0.406,1.578
			c0,0.495,0.088,0.958,0.254,1.351c0.257,0.591,0.704,1.052,1.255,1.351c0.565,0.305,1.221,0.453,1.967,0.453h0.003
			c0.856,0,1.536-0.157,2.118-0.429c0.397-0.195,0.743-0.434,1.059-0.714c0.008,0.138,0.018,0.248,0.034,0.354
			c0.017,0.112,0.045,0.216,0.098,0.31c0.032,0.068,0.076,0.137,0.135,0.19c0.092,0.074,0.196,0.126,0.305,0.151
			c0.11,0.03,0.236,0.037,0.366,0.037h0.512V8.666c0-0.543-0.093-1.01-0.263-1.415C109.517,6.953,109.337,6.693,109.111,6.482
			 M108.458,13.612c-0.37,0.424-0.758,0.787-1.212,1.037c-0.479,0.268-1.062,0.428-1.835,0.428c-0.313,0-0.608-0.037-0.877-0.111
			c-0.192-0.055-0.366-0.138-0.521-0.239c-0.225-0.146-0.407-0.343-0.537-0.609c-0.136-0.272-0.209-0.603-0.209-1.024
			c0-0.355,0.074-0.638,0.209-0.871c0.103-0.176,0.229-0.327,0.396-0.472c0.242-0.197,0.562-0.338,0.953-0.443
			c0.376-0.098,0.813-0.148,1.302-0.148c0.864,0,1.628,0.114,2.333,0.268V13.612z"/>
		<path fill="#FFFFFF" d="M57.249,3.509c0.321,0,0.614,0.021,0.88,0.056c0.582,0.075,1.043,0.222,1.423,0.413
			c0.013,0.007,0.025,0.015,0.04,0.021c0.048,0.027,0.096,0.051,0.14,0.074c0.068,0.041,0.134,0.081,0.195,0.123
			c0.006,0.004,0.008,0.005,0.012,0.01c0.038,0.022,0.075,0.048,0.108,0.075c0.039,0.029,0.078,0.059,0.117,0.091
			c0.104,0.088,0.208,0.177,0.307,0.258c0.106,0.086,0.206,0.166,0.307,0.229c0.372,0.226,0.744,0.229,1.316-0.417
			c-0.177-0.261-0.368-0.487-0.563-0.682c-0.949-0.966-1.991-1.238-2.415-1.364c-0.003-0.003-0.005-0.006-0.009-0.006l0,0
			c-0.295-0.067-0.619-0.118-0.979-0.151c-0.289-0.026-0.6-0.041-0.938-0.041c-3.072,0-6.173,2.167-6.173,7.017
			c0,0.014,0,0.024,0,0.038c0,0.012,0,0.027,0,0.039c0,4.846,3.101,7.017,6.173,7.017c0.338,0,0.649-0.017,0.938-0.043
			c0.36-0.03,0.684-0.083,0.979-0.152l0,0c0.004,0,0.006,0,0.009-0.003c0.424-0.13,1.465-0.4,2.415-1.364
			c0.194-0.199,0.385-0.422,0.563-0.682c-0.572-0.644-0.944-0.644-1.316-0.417c-0.101,0.061-0.201,0.139-0.307,0.226
			c-0.098,0.083-0.202,0.17-0.307,0.262c-0.04,0.027-0.078,0.061-0.117,0.086c-0.034,0.03-0.07,0.053-0.108,0.079
			c-0.003,0.002-0.006,0.007-0.012,0.008c-0.062,0.043-0.127,0.084-0.195,0.121c-0.044,0.027-0.092,0.052-0.14,0.076
			c-0.014,0.008-0.027,0.015-0.04,0.019c-0.38,0.192-0.841,0.344-1.423,0.417c-0.266,0.033-0.559,0.053-0.88,0.053
			c-2.889,0-4.682-2.169-4.682-5.661c0-0.029,0.004-0.053,0.004-0.08c0-0.024-0.004-0.053-0.004-0.076
			C52.567,5.682,54.36,3.509,57.249,3.509"/>
		<path fill="#FFFFFF" d="M115.871,10.108c-2.062-0.349-2.413-0.8-2.413-1.684c0-1.066,0.735-1.58,2.239-1.583
			c1.243,0,1.661,0.332,2.036,0.5c0.377,0.172,0.693,0.211,1.096-0.267c0.051-0.062,0.103-0.134,0.163-0.215
			c-0.048-0.049-0.102-0.105-0.163-0.167c-1.293-1.122-2.588-1.09-3.15-1.09c-2.227,0-3.61,1.111-3.61,2.899
			c0,2.108,1.784,2.663,3.338,2.915c2.12,0.339,2.492,0.833,2.492,1.74c0,1.289-0.815,1.912-2.492,1.912
			c-0.758,0-1.356-0.156-1.811-0.369v0.004c-0.687-0.327-1.072-0.66-1.625-0.066c-0.078,0.085-0.16,0.189-0.246,0.313
			c0.063,0.072,0.143,0.152,0.246,0.244c0.2,0.174,0.476,0.381,0.861,0.586c0.219,0.102,0.474,0.203,0.763,0.287
			c0.496,0.145,1.103,0.241,1.854,0.241c2.501,0,3.879-1.144,3.879-3.229C119.328,10.938,117.665,10.389,115.871,10.108"/>
		<path fill="#FFFFFF" d="M124.685,10.108c-2.064-0.349-2.416-0.8-2.416-1.684c0-1.066,0.733-1.58,2.24-1.583
			c1.241,0,1.657,0.332,2.036,0.5c0.378,0.172,0.696,0.211,1.093-0.267c0.055-0.062,0.109-0.134,0.165-0.215
			c-0.044-0.049-0.099-0.105-0.165-0.167c-1.291-1.122-2.583-1.09-3.148-1.09c-2.227,0-3.609,1.111-3.609,2.899
			c0,2.108,1.786,2.663,3.343,2.915c2.114,0.339,2.487,0.833,2.487,1.74c0,1.289-0.814,1.912-2.487,1.912
			c-0.766,0-1.361-0.156-1.816-0.369v0.004c-0.688-0.327-1.075-0.66-1.623-0.066c-0.08,0.085-0.162,0.189-0.248,0.313
			c0.064,0.072,0.143,0.152,0.248,0.244c0.197,0.174,0.474,0.381,0.855,0.586c0.224,0.102,0.474,0.203,0.767,0.287
			c0.497,0.145,1.1,0.241,1.853,0.241c2.501,0,3.878-1.144,3.878-3.229C128.139,10.938,126.478,10.389,124.685,10.108"/>
		<path fill="#FFFFFF" d="M70.787,6.435c-0.777-0.553-1.746-0.837-2.837-0.832c-0.725,0-1.388,0.121-1.989,0.356
			c-0.895,0.378-1.627,1.012-2.13,1.864c-0.501,0.854-0.773,1.914-0.773,3.122c0,0.816,0.124,1.551,0.351,2.211
			c0.342,0.98,0.937,1.771,1.71,2.311c0.787,0.531,1.748,0.82,2.832,0.82c0.724,0,1.393-0.131,2.001-0.371
			c0.891-0.367,1.624-0.998,2.121-1.844c0.513-0.846,0.775-1.908,0.775-3.127c0-0.805-0.116-1.553-0.339-2.204
			C72.158,7.753,71.571,6.965,70.787,6.435 M71.144,12.713c-0.246,0.768-0.644,1.333-1.175,1.724
			c-0.533,0.394-1.209,0.602-2.019,0.602c-0.544,0-1.026-0.094-1.445-0.272c-0.623-0.263-1.113-0.721-1.464-1.355
			c-0.34-0.639-0.528-1.46-0.528-2.467c0-0.659,0.08-1.248,0.242-1.758c0.239-0.759,0.645-1.342,1.175-1.737
			c0.533-0.401,1.209-0.608,2.021-0.608c0.539,0,1.025,0.091,1.437,0.269c0.629,0.277,1.118,0.739,1.456,1.387
			c0.352,0.634,0.54,1.461,0.54,2.448C71.381,11.614,71.298,12.209,71.144,12.713"/>
		<path fill="#FFFFFF" d="M88.27,6.395c-0.258-0.286-0.585-0.494-0.935-0.617c-0.359-0.125-0.752-0.175-1.158-0.175
			c-0.842,0-1.632,0.201-2.337,0.514c-0.587,0.269-1.108,0.599-1.568,0.962c-0.075-0.18-0.165-0.346-0.266-0.493
			c-0.259-0.344-0.605-0.609-1.001-0.768c-0.384-0.158-0.808-0.216-1.242-0.216c-0.869,0-1.666,0.216-2.362,0.541
			c-0.514,0.247-0.981,0.537-1.384,0.828V6.953c0-0.225-0.003-0.402-0.024-0.555c-0.01-0.111-0.031-0.213-0.059-0.31
			c-0.026-0.066-0.062-0.133-0.118-0.188c-0.034-0.041-0.081-0.082-0.125-0.1c-0.076-0.043-0.146-0.065-0.222-0.075
			c-0.074-0.006-0.144-0.008-0.213-0.013h-0.684v10.49h1.444v-7.82c0.484-0.393,0.991-0.757,1.53-1.027
			c0.579-0.286,1.183-0.464,1.875-0.464c0.252,0,0.477,0.026,0.677,0.074c0.15,0.04,0.273,0.104,0.384,0.174
			c0.161,0.116,0.29,0.27,0.383,0.49c0.095,0.23,0.152,0.529,0.152,0.925v7.647h1.453V8.371c0.479-0.382,0.989-0.742,1.521-1.014
			c0.574-0.288,1.178-0.466,1.84-0.466c0.274,0,0.513,0.026,0.713,0.074c0.15,0.04,0.277,0.104,0.391,0.174
			c0.163,0.116,0.281,0.263,0.372,0.49c0.093,0.228,0.146,0.526,0.146,0.925v7.647h1.438V8.285c0-0.462-0.074-0.865-0.202-1.216
			C88.584,6.811,88.44,6.583,88.27,6.395"/>
		<path fill="#FFFFFF" d="M41.089,2.27h-2.665l-4.272,13.954h2.176l0.916-3.004h5.075l0.92,3.004h3.784L42.789,3.683
			C42.4,2.538,42.183,2.27,41.089,2.27 M37.854,11.165l1.908-6.371l1.935,6.371H37.854z"/>
		<path fill="#FFFFFF" d="M21.638,7.736l0.684-1.008c1.441-2.14,0.451-4.461-2.398-4.461h-6.083v13.959h5.863
			C24.866,16.227,26.412,10.219,21.638,7.736 M18.116,14.364h-0.991V4.084h1.794c0.862,0,1.606,0.712,1.606,1.573
			c0,0.304-0.054,0.586-0.35,1.013l-1.164,1.743c1.218,0.289,2.028,1.22,2.028,2.949C21.04,13.467,19.781,14.364,18.116,14.364"/>
		<path fill="#FFFFFF" d="M9.824,7.736l0.679-1.008c1.447-2.14,0.455-4.461-2.401-4.461H7.896H2.028v13.959h5.868
			C13.048,16.227,14.609,10.219,9.824,7.736 M6.303,14.364H5.319V4.084h1.784c0.865,0,1.616,0.712,1.616,1.573
			c0,0.304-0.057,0.586-0.355,1.013L7.196,8.413c1.218,0.289,2.031,1.22,2.031,2.949C9.227,13.467,7.969,14.364,6.303,14.364"/>
		<path fill="#FFFFFF" d="M33.577,2.267L30.428,12.87l-2.652-8.786c-0.493-1.571-0.746-1.817-1.699-1.817h-2.463l4.563,13.957h3.353
			l4.256-13.957H33.577z"/>
	</g>
</g>
<g id="guias">
</g>
</svg>
