<?xml version="1.0" encoding="utf-8"?>
<!-- Generator: Adobe Illustrator 16.0.0, SVG Export Plug-In . SVG Version: 6.00 Build 0)  -->
<!DOCTYPE svg PUBLIC "-//W3C//DTD SVG 1.1//EN" "http://www.w3.org/Graphics/SVG/1.1/DTD/svg11.dtd">
<svg version="1.1" xmlns="http://www.w3.org/2000/svg" xmlns:xlink="http://www.w3.org/1999/xlink" x="0px" y="0px"
	 width="109.778px" height="45.214px" viewBox="0 0 109.778 45.214" enable-background="new 0 0 109.778 45.214"
	 xml:space="preserve">
<g id="Capa_1">
	<g>
		<path fill="#26488D" d="M91.488,4.648H85.38l-9.781,31.957h4.982l2.098-6.88h11.617l2.11,6.88h8.659L95.373,7.893
			C94.488,5.268,93.988,4.648,91.488,4.648 M84.076,25.02l4.371-14.584l4.426,14.584H84.076z"/>
		<path fill="#26488D" d="M46.939,17.172l1.568-2.314c3.297-4.897,1.03-10.216-5.498-10.216H29.076v31.975h13.439
			C54.328,36.616,57.867,22.854,46.939,17.172 M38.875,32.343h-2.271V8.808h4.105c1.979,0,3.682,1.63,3.682,3.602
			c0,0.694-0.13,1.341-0.805,2.314l-2.66,3.993c2.783,0.668,4.646,2.789,4.646,6.755C45.572,30.291,42.687,32.343,38.875,32.343"/>
		<path fill="#26488D" d="M19.886,17.172l1.559-2.314c3.31-4.897,1.04-10.216-5.502-10.216h-0.479H2.028v31.975h13.436
			C27.267,36.616,30.839,22.854,19.886,17.172 M11.82,32.343H9.567V8.808h4.085c1.982,0,3.702,1.63,3.702,3.602
			c0,0.694-0.127,1.341-0.816,2.314l-2.677,3.993c2.795,0.668,4.655,2.789,4.655,6.755C18.516,30.291,15.635,32.343,11.82,32.343"/>
		<path fill="#26488D" d="M74.281,4.642l-7.213,24.28L60.997,8.806c-1.134-3.601-1.71-4.164-3.897-4.164h-5.641l10.457,31.964h7.68
			l9.742-31.964H74.281z"/>
	</g>
</g>
<g id="guias">
</g>
</svg>
