<?xml version="1.0" encoding="utf-8"?>
<!-- Generator: Adobe Illustrator 16.0.0, SVG Export Plug-In . SVG Version: 6.00 Build 0)  -->
<!DOCTYPE svg PUBLIC "-//W3C//DTD SVG 1.1//EN" "http://www.w3.org/Graphics/SVG/1.1/DTD/svg11.dtd">
<svg version="1.1" xmlns="http://www.w3.org/2000/svg" xmlns:xlink="http://www.w3.org/1999/xlink" x="0px" y="0px"
	 width="294.611px" height="45.214px" viewBox="0 0 294.611 45.214" enable-background="new 0 0 294.611 45.214"
	 xml:space="preserve">
<g id="Capa_1">
	<g id="compass_2_">
		<path fill="#26488D" d="M217.967,12.276c-3.004,0-5.811,1.207-8.17,3.509v-0.394c0-1.938-0.176-2.853-1.748-2.853h-1.572v31.225
			h3.32v-9.168c1.957,1.424,4.205,2.072,7.107,2.072c2.451,0,10.436-0.902,10.436-12.463
			C227.34,13.437,220.784,12.276,217.967,12.276 M216.514,33.786c-2.904,0-4.928-0.814-6.717-2.705v-11.52
			c2.52-2.974,5.012-4.356,7.818-4.356c4.1,0,6.359,3.27,6.359,9.218C223.975,32.161,219.917,33.786,216.514,33.786"/>
		<path fill="#26488D" d="M247.342,14.293c-0.746-0.726-1.693-1.25-2.816-1.573c-1.092-0.309-2.344-0.444-3.684-0.444
			c-4.596,0.026-7.182,1.359-8.861,2.313c1.246,2.623,2.559,1.975,4.258,1.251c1.307-0.56,2.805-0.796,4.389-0.796
			c0.732,0.006,1.525,0.179,2.305,0.332c0.459,0.125,0.875,0.293,1.213,0.495c0.559,0.345,0.951,0.769,1.25,1.319
			c0.295,0.561,0.451,1.306,0.451,2.249v3.427c-1.736-0.384-3.482-0.559-5.479-0.559c-1.393,0-2.672,0.136-3.855,0.415
			c-0.875,0.217-1.66,0.51-2.406,0.891c-1.074,0.584-1.955,1.393-2.576,2.389c-0.615,1.016-0.932,2.215-0.932,3.615
			c0,1.135,0.203,2.195,0.582,3.094c0.588,1.352,1.613,2.41,2.877,3.094c1.295,0.699,2.797,1.041,4.504,1.041h0.008
			c1.961,0,3.52-0.363,4.852-0.982c0.912-0.449,1.703-0.994,2.426-1.639c0.02,0.318,0.041,0.568,0.076,0.814
			c0.041,0.258,0.105,0.494,0.225,0.709c0.076,0.156,0.176,0.313,0.313,0.438c0.211,0.17,0.449,0.287,0.699,0.344
			c0.252,0.068,0.539,0.086,0.84,0.086h1.17V19.295c0-1.247-0.211-2.314-0.604-3.241C248.272,15.372,247.86,14.774,247.342,14.293
			 M245.846,30.628c-0.846,0.969-1.736,1.799-2.777,2.373c-1.098,0.613-2.43,0.977-4.205,0.977c-0.717,0-1.393-0.082-2.01-0.254
			c-0.441-0.125-0.838-0.314-1.193-0.547c-0.516-0.334-0.934-0.785-1.234-1.395c-0.309-0.623-0.477-1.383-0.477-2.344
			c0-0.816,0.168-1.463,0.477-1.994c0.238-0.406,0.527-0.752,0.908-1.082c0.555-0.453,1.289-0.777,2.184-1.014
			c0.861-0.227,1.863-0.34,2.984-0.34c1.979,0,3.727,0.258,5.344,0.611V30.628z"/>
		<path fill="#26488D" d="M128.531,7.48c0.736,0,1.406,0.048,2.018,0.128c1.333,0.17,2.39,0.507,3.26,0.946
			c0.03,0.015,0.059,0.035,0.092,0.048c0.11,0.061,0.219,0.115,0.32,0.169c0.154,0.093,0.306,0.184,0.448,0.281
			c0.011,0.006,0.019,0.012,0.026,0.021c0.087,0.05,0.171,0.111,0.248,0.171c0.09,0.066,0.179,0.136,0.269,0.21
			c0.242,0.202,0.479,0.406,0.704,0.59c0.241,0.198,0.471,0.38,0.703,0.524c0.853,0.518,1.705,0.525,3.017-0.954
			c-0.407-0.598-0.844-1.113-1.289-1.56c-2.175-2.214-4.561-2.837-5.531-3.126c-0.006-0.007-0.014-0.016-0.021-0.016l0,0
			c-0.678-0.151-1.421-0.269-2.245-0.346c-0.663-0.062-1.373-0.093-2.149-0.093c-7.038,0-14.142,4.962-14.142,16.073
			c0,0.032,0.004,0.058,0.004,0.087c0,0.031-0.004,0.063-0.004,0.092c0,11.101,7.104,16.075,14.142,16.075
			c0.776,0,1.486-0.037,2.149-0.1c0.824-0.07,1.567-0.188,2.245-0.348l0,0c0.007,0,0.015,0,0.021-0.008
			c0.97-0.297,3.356-0.916,5.531-3.127c0.445-0.453,0.882-0.965,1.289-1.561c-1.312-1.477-2.164-1.477-3.017-0.955
			c-0.232,0.139-0.462,0.316-0.703,0.518c-0.225,0.189-0.462,0.391-0.704,0.598c-0.09,0.066-0.178,0.141-0.269,0.201
			c-0.077,0.066-0.16,0.119-0.248,0.178c-0.007,0.004-0.015,0.016-0.026,0.018c-0.142,0.1-0.294,0.193-0.448,0.277
			c-0.101,0.064-0.21,0.119-0.32,0.176c-0.033,0.016-0.062,0.033-0.092,0.041c-0.87,0.441-1.927,0.787-3.26,0.957
			c-0.611,0.074-1.282,0.119-2.018,0.119c-6.615,0-10.724-4.967-10.724-12.969c0-0.066,0.007-0.119,0.007-0.183
			c0-0.055-0.007-0.119-0.007-0.174C117.807,12.458,121.916,7.48,128.531,7.48"/>
		<path fill="#26488D" d="M262.829,22.601c-4.727-0.802-5.527-1.835-5.527-3.859c0-2.444,1.684-3.622,5.127-3.628
			c2.848-0.002,3.805,0.761,4.664,1.146c0.865,0.396,1.588,0.484,2.506-0.61c0.121-0.144,0.24-0.309,0.379-0.493
			c-0.111-0.113-0.234-0.242-0.379-0.384c-2.959-2.57-5.926-2.498-7.213-2.498c-5.1,0-8.271,2.547-8.271,6.644
			c0,4.829,4.09,6.1,7.65,6.674c4.854,0.779,5.705,1.908,5.705,3.988c0,2.949-1.865,4.379-5.705,4.379
			c-1.738,0-3.107-0.357-4.15-0.848v0.012c-1.574-0.75-2.455-1.51-3.723-0.154c-0.18,0.195-0.365,0.434-0.561,0.719
			c0.143,0.16,0.324,0.348,0.561,0.557c0.457,0.398,1.092,0.873,1.973,1.342c0.504,0.234,1.086,0.469,1.75,0.66
			c1.135,0.332,2.525,0.553,4.246,0.553c5.727,0,8.887-2.621,8.887-7.395C270.747,24.501,266.938,23.241,262.829,22.601"/>
		<path fill="#26488D" d="M283.018,22.601c-4.729-0.802-5.533-1.835-5.533-3.859c0-2.444,1.678-3.622,5.133-3.628
			c2.842-0.002,3.793,0.761,4.662,1.146c0.867,0.396,1.596,0.484,2.506-0.61c0.123-0.144,0.25-0.309,0.377-0.493
			c-0.1-0.113-0.225-0.242-0.377-0.384c-2.959-2.57-5.92-2.498-7.213-2.498c-5.102,0-8.27,2.547-8.27,6.644
			c0,4.829,4.09,6.1,7.658,6.674c4.844,0.779,5.697,1.908,5.697,3.988c0,2.949-1.863,4.379-5.697,4.379
			c-1.756,0-3.119-0.357-4.16-0.848v0.012c-1.574-0.75-2.461-1.51-3.715-0.154c-0.184,0.195-0.371,0.434-0.568,0.719
			c0.145,0.16,0.326,0.348,0.568,0.557c0.451,0.398,1.084,0.873,1.957,1.342c0.512,0.234,1.088,0.469,1.758,0.66
			c1.139,0.332,2.52,0.553,4.246,0.553c5.729,0,8.885-2.621,8.885-7.395C290.932,24.501,287.127,23.241,283.018,22.601"/>
		<path fill="#26488D" d="M159.546,14.183c-1.78-1.268-3.999-1.917-6.5-1.907c-1.66,0-3.18,0.278-4.556,0.817
			c-2.051,0.868-3.729,2.321-4.882,4.269c-1.148,1.958-1.77,4.387-1.77,7.152c0,1.871,0.281,3.555,0.804,5.068
			c0.78,2.244,2.144,4.057,3.917,5.291c1.803,1.217,4.003,1.879,6.487,1.879c1.658,0,3.192-0.299,4.583-0.85
			c2.04-0.844,3.722-2.285,4.86-4.223c1.174-1.938,1.777-4.369,1.777-7.166c0-1.844-0.266-3.555-0.779-5.049
			C162.688,17.203,161.342,15.397,159.546,14.183 M160.362,28.567c-0.561,1.76-1.475,3.053-2.688,3.953
			c-1.225,0.9-2.774,1.375-4.627,1.375c-1.246,0-2.353-0.215-3.31-0.625c-1.428-0.602-2.551-1.65-3.355-3.104
			c-0.78-1.465-1.21-3.348-1.21-5.652c0-1.51,0.183-2.858,0.554-4.027c0.547-1.74,1.475-3.075,2.692-3.978
			c1.221-0.922,2.769-1.396,4.63-1.396c1.235,0,2.347,0.21,3.291,0.615c1.442,0.637,2.562,1.693,3.333,3.179
			c0.809,1.452,1.238,3.348,1.238,5.607C160.909,26.046,160.719,27.411,160.362,28.567"/>
		<path fill="#26488D" d="M199.596,14.091c-0.59-0.654-1.34-1.132-2.141-1.411c-0.82-0.287-1.721-0.404-2.652-0.404
			c-1.93,0-3.74,0.461-5.352,1.18c-1.346,0.618-2.539,1.372-3.596,2.204c-0.172-0.414-0.375-0.792-0.609-1.129
			c-0.594-0.79-1.387-1.396-2.293-1.758c-0.879-0.362-1.852-0.497-2.846-0.497c-1.99,0-3.818,0.497-5.412,1.242
			c-1.176,0.564-2.25,1.229-3.17,1.896v-0.043c0-0.519-0.008-0.924-0.057-1.273c-0.023-0.252-0.07-0.488-0.135-0.708
			c-0.059-0.151-0.139-0.306-0.27-0.431c-0.078-0.093-0.184-0.186-0.285-0.229c-0.174-0.099-0.334-0.148-0.508-0.169
			c-0.172-0.015-0.33-0.022-0.49-0.032h-1.564v24.029h3.309V18.646c1.109-0.903,2.273-1.736,3.506-2.354
			c1.324-0.655,2.711-1.063,4.297-1.063c0.576,0,1.092,0.059,1.551,0.169c0.344,0.094,0.627,0.239,0.879,0.399
			c0.369,0.266,0.666,0.62,0.877,1.123c0.221,0.53,0.35,1.213,0.35,2.12v17.519h3.328V18.62c1.098-0.877,2.264-1.701,3.484-2.325
			c1.316-0.659,2.699-1.067,4.219-1.067c0.623,0,1.172,0.059,1.631,0.169c0.344,0.094,0.635,0.239,0.896,0.399
			c0.373,0.266,0.643,0.604,0.854,1.123c0.211,0.523,0.328,1.206,0.328,2.12v17.519h3.297V18.422c0-1.059-0.166-1.979-0.463-2.786
			C200.319,15.044,199.989,14.522,199.596,14.091"/>
		<path fill="#26488D" d="M91.512,4.64h-6.105l-9.785,31.968h4.983l2.099-6.883h11.625l2.109,6.883h8.667L95.406,7.879
			C94.518,5.256,94.018,4.64,91.512,4.64 M84.102,25.021l4.373-14.595l4.434,14.595H84.102z"/>
		<path fill="#26488D" d="M46.952,17.164l1.566-2.311c3.304-4.899,1.036-10.218-5.493-10.218H29.088v31.979h13.435
			C54.347,36.614,57.888,22.853,46.952,17.164 M38.884,32.347h-2.271V8.797h4.109c1.975,0,3.679,1.632,3.679,3.604
			c0,0.697-0.123,1.344-0.8,2.32l-2.667,3.993c2.79,0.661,4.648,2.794,4.648,6.755C45.583,30.292,42.697,32.347,38.884,32.347"/>
		<path fill="#26488D" d="M19.888,17.164l1.556-2.311c3.313-4.899,1.041-10.218-5.5-10.218H15.47H2.028v31.979H15.47
			C27.273,36.614,30.848,22.853,19.888,17.164 M11.821,32.347H9.567V8.797h4.089c1.981,0,3.701,1.632,3.701,3.604
			c0,0.697-0.131,1.344-0.815,2.32l-2.675,3.993c2.791,0.661,4.653,2.794,4.653,6.755C18.52,30.292,15.637,32.347,11.821,32.347"/>
		<path fill="#26488D" d="M74.304,4.635l-7.215,24.288L61.013,8.797c-1.128-3.598-1.708-4.163-3.893-4.163h-5.644l10.457,31.974
			h7.679l9.751-31.974H74.304z"/>
	</g>
</g>
<g id="guias">
</g>
</svg>
